<?xml version="1.0" encoding="utf-8"?>
<!-- Generator: Adobe Illustrator 26.0.1, SVG Export Plug-In . SVG Version: 6.00 Build 0)  -->
<svg version="1.1" id="Layer_1" xmlns="http://www.w3.org/2000/svg" xmlns:xlink="http://www.w3.org/1999/xlink" x="0px" y="0px"
	 viewBox="0 0 504 150" style="enable-background:new 0 0 504 150;" xml:space="preserve">
<style type="text/css">
	.st0{fill-rule:evenodd;clip-rule:evenodd;fill:#010101;}
	.st1{fill-rule:evenodd;clip-rule:evenodd;fill:#0C6936;}
	.st2{fill-rule:evenodd;clip-rule:evenodd;fill:#A6D05D;}
	.st3{fill-rule:evenodd;clip-rule:evenodd;fill:#E0208D;}
	.st4{fill:none;stroke:#010101;stroke-width:0.6284;stroke-linecap:round;stroke-linejoin:round;stroke-miterlimit:2.6131;}
	.st5{fill:none;}
	.st6{fill-rule:evenodd;clip-rule:evenodd;fill:#E081B4;}
	.st7{fill-rule:evenodd;clip-rule:evenodd;fill:#D8539B;}
	.st8{fill-rule:evenodd;clip-rule:evenodd;fill:#EEC7DE;}
	.st9{fill:none;stroke:#010101;stroke-width:0.2027;stroke-miterlimit:2.6131;}
	.st10{fill:none;stroke:#010101;stroke-width:0.6808;stroke-linecap:round;stroke-linejoin:round;stroke-miterlimit:2.6131;}
	.st11{fill-rule:evenodd;clip-rule:evenodd;fill:#FFFFFF;}
	.st12{fill:none;stroke:#FFFFFF;stroke-width:0.2235;stroke-linecap:round;stroke-linejoin:round;stroke-miterlimit:2.6131;}
	.st13{fill:none;stroke:#FFFFFF;stroke-width:0.2027;stroke-miterlimit:2.6131;}
	.st14{fill:none;stroke:#010101;stroke-width:0.6616;stroke-linecap:round;stroke-linejoin:round;stroke-miterlimit:2.6131;}
	.st15{fill-rule:evenodd;clip-rule:evenodd;fill:#F57E20;}
	.st16{fill:#A6D05D;}
	.st17{fill:#FFFFFF;}
	.st18{fill:#010101;}
</style>
<g>
	<polygon class="st0" points="44.9,98.6 44.5,90.9 41.4,86.2 40.1,84.4 38.5,83.3 37,82.4 34.5,81.7 37.9,81 39.7,80.7 42,80.7 
		44,81.5 46,82.6 43.7,75.6 42.6,72.1 41.4,68.6 39.8,72.9 38.4,75 36.6,77 34.2,78.8 29.1,81.7 23.4,67.7 25.9,63.9 28.4,60.8 
		31.6,57.9 29.7,55.6 28.2,53.9 26.9,51.7 24.2,41.8 23.4,36 22.3,32.2 26.1,36.8 31.6,40.3 35.5,43.7 34.7,36.8 35.1,32.6 
		36.3,27.6 41,18 53.9,49 55.3,45 56.8,42.2 58.1,40.8 59.7,39.3 61.5,37.7 63.3,35.5 64.5,33.4 65.3,27.3 69.9,32.6 70.7,33.7 
		71.4,34.9 71.8,36.6 70.8,45.1 64.9,52.7 64.3,54.3 63.8,55.8 63.7,58.6 77.7,60.2 79.9,62.1 82,65.2 83.9,69.4 85.6,72 87.8,74.5 
		84.5,73.9 81,73.1 74,69.6 66.8,76.8 64,89.6 67.6,85.1 70.3,84 72.6,84.8 70.4,85.4 69.1,86.2 68.4,87 67.2,88.8 66.3,90.5 
		62.4,99.7 60.8,100.3 57.1,100.8 51.2,100.9 47.8,100.7 44.9,100.2 	"/>
	<polygon class="st1" points="72,67.1 73.8,66.6 75.1,66.4 76.7,66.4 78.7,66.8 81.2,67.5 87.7,68.2 90.3,68.7 92.1,69.2 93,69.7 
		93.7,70.4 94.9,71.8 95.7,73.3 96.8,76.2 98.4,78.3 99.9,80.7 100.6,82.7 101.1,84.7 101.1,86.9 100.3,89 100.6,91.4 100.8,93.8 
		101.2,96.5 101.2,99.1 99.1,102.2 97.7,103.7 94.6,106.4 93.3,109.1 92.6,109.4 91.7,106.5 91.6,102.7 91.6,98.9 90.9,90 90.3,87 
		89.6,84.8 89,83.3 86.9,80.6 85.6,78.8 84.2,76.6 82.3,72.4 81.5,70.6 80.4,69.7 78.4,68.7 76.2,68.1 75.2,68.1 74,68.3 72.3,68.6 
		69.8,69.7 69.7,67.9 	"/>
	<polygon class="st2" points="82.7,68.6 88.9,70.3 90.5,70.8 91.3,71.4 92.6,72.4 93.5,73.8 94.3,75.3 92.9,75.2 94.8,77.1 
		96.5,78.4 97.7,79.7 98.4,81.1 99,82.3 97.7,81.4 96.2,80.6 96,80.9 97.1,82 98.6,83.8 99.4,85.6 99.6,87.6 99.2,89.2 98.5,87.3 
		97.8,87 98.2,89.1 98.9,91.3 99.1,93.6 98.6,95.4 97.8,97.8 95.5,101.4 95.8,97.1 95.1,94.9 94.4,92.9 95.1,89.1 94,90.5 
		94.1,87.3 93,88 91.2,83.3 91.5,81.9 91.7,80.8 91.4,79.1 91,77.9 90.4,77.9 89.3,78.8 87.8,75.4 86.5,73.6 84.9,72 83.1,70.3 
		81.8,69.4 80.5,68.7 79.7,68.4 78.2,68 76.5,67.6 74.3,67.7 76.9,67.4 78.1,67.4 79.2,67.5 80.1,67.8 81.1,68.1 83.1,69.2 
		86.5,71.3 87.8,72.2 89.3,73.3 91.5,75.7 90.5,74 89.4,72.7 87.9,71.4 86.1,70.4 	"/>
	<g>
		<polygon class="st1" points="58.1,55 63.1,47.9 65.2,45.1 66.6,43.2 68.6,40.7 70.5,37.7 71.8,36.1 73.4,35 75,34.4 77.3,33.9 
			80,33.6 82.7,33.5 87.7,33.2 90.5,32.7 91.8,32.3 94.2,32.1 96.1,32.1 97.8,32.4 101.1,34.3 103.8,36.2 106.5,38.1 108.1,39.3 
			110.2,40.3 112.1,41.1 113.9,41.8 115.5,41.9 117.4,41.9 116,43.1 114.1,43.9 112.5,44.1 110,44.2 105.3,44.5 100.7,45.4 
			98.1,46.2 95.5,47.4 93.5,47.9 91.2,48.4 88.6,48.4 85.9,48.4 83.5,48.1 76.1,46.5 73.1,46.2 70.5,46.4 68.3,46.9 66.2,48 
			64.8,49 63.5,50.2 61.6,52.6 58.5,56.9 		"/>
		<polygon class="st2" points="61.9,50.8 65.9,44.6 68.8,41.8 72,39.2 74.3,38 76.9,37.3 74.8,39.2 78.2,38.8 82.8,36.8 81.2,38.5 
			84.7,36.5 86.6,35.6 89.2,34.8 85.1,38.5 87.3,37.9 90.3,36.3 93.2,35.8 95.6,35.7 98.9,36 95.3,36.9 92.5,38.2 96.1,37.8 
			98.8,37.8 100.6,38.1 102.1,38.5 105.6,40.1 108,41.1 111.2,42.3 106.5,42 104.1,41.6 101.6,41 99.6,40.9 97.5,40.7 94.3,41.2 
			99.3,41.7 94.4,42.4 91.7,42.5 93,43.4 84.3,42.7 87.7,43.6 84.5,43.6 81.6,43.5 78.1,43 74.6,43 77.3,43.7 73.7,43.6 70.7,43.1 
			69.3,43.5 68,44.3 66.1,45.7 		"/>
	</g>
	<path class="st0" d="M29.3,128.6c-0.2,1.3-0.4,3.2,4.3,4.7c4.7,1.5,14.4,2.7,22,2.7c7.6,0,17.3-1.2,22-2.7c4.7-1.5,4.5-3.4,4.3-4.7
		c-0.2-2.5-0.7-8.2-0.5-13.9c0.2-5.7,1.2-11.4,1.7-13.9c0-0.1,0-0.2,0-0.3c-1.7,1.2-5.4,2.3-10.2,3.1c-4.8,0.8-10.8,1.2-17.3,1.2
		c-6.5,0-12.5-0.5-17.3-1.2c-4.8-0.8-8.5-1.9-10.2-3.1c0,0.1,0,0.2,0,0.3c0.4,2,1.5,7.9,1.7,13.9C30,120.7,29.5,126.7,29.3,128.6"/>
	<path class="st0" d="M55.2,92.1c14.6,0,26.5,2.1,26.5,4.7c0,2.6-11.9,4.7-26.5,4.7s-26.5-2.1-26.5-4.7
		C28.7,94.3,40.6,92.1,55.2,92.1z"/>
	<path class="st0" d="M47.4,66.3l-10.2-3.4c0,0-7.1,6.5-7.5,8.5c-0.4,2-2.3,8.1-0.9,10.4c1.4,2.3,3.5,5.8,6,6.4
		c2.4,0.6,10.4,2,11.3,2.3c0.9,0.3,2.2,0.7,4.4,0.7c2.1,0,6.6,1.7,9,1.9c2.4,0.2,7.9-0.5,9-0.8c1.1-0.3,5.6-1.2,5.8-2.1
		c0.2-0.9-2.9-8.8-4.8-11.1c-1.8-2.4-7.6-5.5-10.7-7C55.6,70.5,47.4,66.3,47.4,66.3"/>
	<path class="st3" d="M51.8,64.7c0.3-0.3,1-0.5,1.4-0.4c0.4-0.2,0.4-1.4,0.1-1.9c-0.2,0.1-0.4,0.2-0.6,0.1c0.3-0.7,0-1.5-0.2-2.1
		c-0.1-0.3,0-0.8-0.2-0.7c-0.4,0.1-0.8,0-1.3,0.4c-0.3,0.9-0.7,1.8-1.1,2.3c-0.1,0.2,0,0.3,0.1,0.5c0.7-0.2,1.5-0.5,2.2-1.1
		C52.1,62.4,52.3,63.7,51.8,64.7z"/>
	<path class="st4" d="M51.8,64.7c0.3-0.3,1-0.5,1.4-0.4c0.4-0.2,0.4-1.4,0.1-1.9c-0.2,0.1-0.4,0.2-0.6,0.1c0.3-0.7,0-1.5-0.2-2.1
		c-0.1-0.3,0-0.8-0.2-0.7c-0.4,0.1-0.8,0-1.3,0.4c-0.3,0.9-0.7,1.8-1.1,2.3c-0.1,0.2,0,0.3,0.1,0.5c0.7-0.2,1.5-0.5,2.2-1.1
		C52.1,62.4,52.3,63.7,51.8,64.7z"/>
	<path class="st3" d="M47.6,64.3c0.2-0.3,0.8-0.6,1.1-0.8c1.1-0.8,2.1-2.8,2.3-3.9c0-0.2,0.1-0.5,0-0.5c-0.4,0.2-0.7,0.4-1.6,1
		C48.9,60.5,47.1,62.7,47.6,64.3z"/>
	<path class="st4" d="M47.6,64.3c0.2-0.3,0.8-0.6,1.1-0.8c1.1-0.8,2.1-2.8,2.3-3.9c0-0.2,0.1-0.5,0-0.5c-0.4,0.2-0.7,0.4-1.6,1
		C48.9,60.5,47.1,62.7,47.6,64.3z"/>
	<path class="st3" d="M54.2,64.4c-1.2-0.1-1.9-0.3-2.5,0.4c-0.3,0.3-0.4,0.8-0.6,0.9c0.5,0.1,1.5-0.2,2.3-0.7
		C53.8,64.8,54.5,64.4,54.2,64.4z"/>
	<path class="st4" d="M54.2,64.4c-1.2-0.1-1.9-0.3-2.5,0.4c-0.3,0.3-0.4,0.8-0.6,0.9c0.5,0.1,1.5-0.2,2.3-0.7
		C53.8,64.8,54.5,64.4,54.2,64.4z"/>
	<path class="st3" d="M47.7,64.4c0.4,1.1,2,1.7,3.2,1.3c0.4-0.1,0.7-0.7,0.9-1.7c0.2-0.6,0.1-1.6,0.3-2
		C51.2,62.9,48.2,63.5,47.7,64.4z"/>
	<path class="st4" d="M47.7,64.4c0.4,1.1,2,1.7,3.2,1.3c0.4-0.1,0.7-0.7,0.9-1.7c0.2-0.6,0.1-1.6,0.3-2
		C51.2,62.9,48.2,63.5,47.7,64.4z"/>
	<path class="st3" d="M47.1,58.4c-0.2-0.3-0.4-0.7-0.6-0.5c-0.3,0.2,0,0.5-0.1,1.2c-0.3,1.3-0.5,3.2,0.9,4.8c0-0.4,0.2-1.3,0.6-1.9
		C47.8,60.2,47.4,58.8,47.1,58.4z"/>
	<path class="st4" d="M47.1,58.4c-0.2-0.3-0.4-0.7-0.6-0.5c-0.3,0.2,0,0.5-0.1,1.2c-0.3,1.3-0.5,3.2,0.9,4.8c0-0.4,0.2-1.3,0.6-1.9
		C47.8,60.2,47.4,58.8,47.1,58.4z"/>
	<path class="st3" d="M50.9,65.9C50.5,66,50,66,49.4,65.9c0.3,0.2,1.1,1,1.3,1.9c0.6,0.2,1.5,1.2,2.5,1.7c0.4,0.2,1.1,0.6,1.2,0.2
		c0.1-0.5-0.5-1.6-1.7-2.7C52.4,66.9,51.3,65.8,50.9,65.9z"/>
	<path class="st4" d="M50.9,65.9C50.5,66,50,66,49.4,65.9c0.3,0.2,1.1,1,1.3,1.9c0.6,0.2,1.5,1.2,2.5,1.7c0.4,0.2,1.1,0.6,1.2,0.2
		c0.1-0.5-0.5-1.6-1.7-2.7C52.4,66.9,51.3,65.8,50.9,65.9z"/>
	<path class="st4" d="M40.1,53.2c-0.3,0.4-2.6,0.5-3.1,1.8c0,0.3,0,0.7,0.1,0.9c0.2-0.2,0.5-0.6,0.7-0.7c0.1,0.7,0.6,3.1,0.5,3.9
		c2.3-1.9,2.2-4.6,2.4-5.1C40.9,53.2,40.6,52.6,40.1,53.2z"/>
	<path class="st5" d="M48.6,69.6c-0.4,1.6-0.4,2.3-0.4,2.8c0.1,0.4,0.1,0.7,0.3,0.6c1.8-1.1,3.5-4.4,0.7-7c-0.3-0.1-0.7-0.3-0.9-0.5
		"/>
	<path class="st4" d="M46.4,62.8c-1.5-1.8-5.3-1.2-6.5,0.9c1.7,0.9,4.4-0.5,6.2,0.5c0.3-0.3,0.9-0.3,1.1-0.3
		C46.9,63.6,46.5,63.1,46.4,62.8z"/>
	<path class="st4" d="M43.4,70.8c0.2-0.1,0.4-0.4,0.6-0.5c2.2-1.7,3.6-3.1,4.2-5c0.1-0.3-0.7-0.7-0.9-1.2c-1.6-0.7-3.6,3.9-3.9,6
		C43.4,70.3,43.2,70.9,43.4,70.8z"/>
	<path class="st4" d="M36.7,61.3c2.4-0.3,0.9-5.2,0.9-5.9c-0.8,0.9-2.1,2.4-2.1,3.2C35.5,59.6,36.6,59.9,36.7,61.3z"/>
	<path class="st4" d="M35.1,53.4c-0.3,0-0.9,0.3-1.2,0.2c-1-0.3-0.9,1.9-1.2,2c-0.3,0-0.6-0.5-0.9-0.5c-0.3,0-0.6,0.7-0.8,1.7
		c0.4-0.6,0.7-0.3,0.9-0.7c0.2-0.3,0.5-0.3,0.6-0.1c0.4,0.7,0.4,0.5,0.5,0.3c0.1-0.2,0.5-0.5,0.7,0c0.3-0.4,1.1-0.5,1.5,0
		c0.1,0.1-0.4,0.3-0.4,0.8c0,0.1,0.4,0.8,0.6,0.8c0.6-0.8,1-1.4,1.5-1.8c0-0.1-0.3-0.6-0.2-1c0-0.2-0.1-0.4-0.4-0.9
		c-0.2,0.1-0.4-0.1-0.6,0C35.7,53.8,35.3,53.4,35.1,53.4z"/>
	<path class="st4" d="M29,52.4c-0.2,0.2,1.5,0.7,1.9,3.9c0.2-0.4,0.4-1.6,1.1-1.2c0.1,0.1,0.4,0.3,0.5,0.3c0.2-0.1,0.2-0.5,0.3-0.7
		C32.3,52.8,29.9,51.5,29,52.4z"/>
	<path class="st4" d="M34.9,58.1c-0.5,0.4-0.6,1-1,1.3c-0.8,0.6-1.6,2.2-0.3,2.6c1.2,0.3,2.2,0.1,3-0.8c0.1-0.9-0.7-1.5-1-2
		C35.3,58.9,35.5,58.6,34.9,58.1z"/>
	<path class="st4" d="M36.8,61.7c-0.2,0-1.2,0.6-1.3,0.9c-0.3,2.4,3.1,3.6,4.3,5.4c0.6,1,1.1,0.9,1.1,0.3
		C40.5,65.9,39.4,62.3,36.8,61.7z"/>
	<path class="st4" d="M31.6,57c-0.8,0.5-0.5,1.7-0.4,2.3c0.1,0.5,1,1.7,1.5,1.9c0-0.1,0-0.3,0-0.3C33,58.8,31.6,58.4,31.6,57z"/>
	<path class="st4" d="M30.8,57c-2.5-0.8-5.5,0.3-6.7,2.6c-0.2,0.4,0.2,0.9,0.9,0.3c2-1.4,3.8-0.2,5.8-0.5
		C30.8,58.8,30.5,57.8,30.8,57z"/>
	<path class="st4" d="M35.2,63c-0.3-0.6-1.1-0.7-1.5-0.6c-2.5,0.8-1.5,4.3-1.3,6.3c0.2,1.6,1,1,1.1,0.3C34.1,66.8,36.1,65.6,35.2,63
		z"/>
	<path class="st4" d="M28.4,67.6c1.4-1.3,2.4-2.7,3.6-4c0.8-0.8,0.4-1.7,0-2.6c-0.2-0.4-0.5-0.6-0.9-0.5c-2.3,1.1-3.4,4.4-3,7
		C28.2,67.8,28.2,67.8,28.4,67.6z"/>
	<path class="st4" d="M28.7,59.5c-0.5,0.6-2.1,1.9-2.5,2.5c-0.4,0.8,0.4,0.8,0.7,0.6c0.7-0.5,2-0.6,2.8-1.1c0.3-0.3,0.4-0.4,0.9-0.7
		c0.9-0.6,0.2-0.9-0.4-1C29.8,59.7,29.2,59.6,28.7,59.5z"/>
	<path class="st6" d="M51.9,64.6c0.3-0.3,1-0.5,1.4-0.4c0.4-0.2,0.4-1.4,0.1-1.9c-0.2,0.1-0.4,0.2-0.6,0.1c0.5-1.1-0.3-2.2-0.4-2.8
		c-0.3,0.3-0.8,0-1.3,0.4c-0.3,0.9-0.7,1.8-1.1,2.3c-0.1,0.2,0,0.3,0.1,0.5c0.7-0.2,1.5-0.5,2.2-1.1C52.2,62.4,52.5,63.6,51.9,64.6"
		/>
	<path class="st6" d="M47.8,64.2c0.2-0.3,0.8-0.6,1.1-0.8c1.3-1,2.5-3.4,2.3-4.3c-0.1,0.1-0.3,0.2-0.5,0.3c-0.3,0.1-0.6,0.3-1.1,0.6
		C49.1,60.4,47.2,62.6,47.8,64.2"/>
	<path class="st6" d="M54.3,64.3c-0.1,0-0.3,0-0.4,0c-0.9,0-1.6-0.3-2,0.3c-0.3,0.3-0.4,0.8-0.6,0.9C52,65.8,53.6,65.2,54.3,64.3"/>
	<path class="st6" d="M47.9,64.3c0.4,1.1,2,1.7,3.2,1.3c0.4-0.1,0.7-0.7,0.9-1.7c0.2-0.6,0.1-1.6,0.3-2
		C51.3,62.9,48.3,63.5,47.9,64.3"/>
	<path class="st3" d="M47.2,58.3c-0.2-0.3-0.4-0.7-0.6-0.5c-0.3,0.2,0,0.5-0.1,1.2c-0.3,1.3-0.5,3.2,0.9,4.8c0-0.4,0.2-1.3,0.6-1.9
		C48,60.1,47.5,58.8,47.2,58.3"/>
	<path class="st3" d="M51,65.8c-0.4,0.1-0.9,0.2-1.5,0.1c0.3,0.2,1.1,1,1.3,1.9c0.8,0.2,2.3,2.2,3.7,1.9c-0.3-0.4-0.5-1.6-1.7-2.7
		C52.6,66.8,51.5,65.7,51,65.8"/>
	<path class="st7" d="M40.3,53.1c-0.3,0.4-2.6,0.5-3.1,1.8c0,0.3,0,0.7,0.1,0.9c0.2-0.2,0.4-0.3,0.6-0.5c0.1,0.7,0.7,2.8,0.6,3.6
		c2.3-1.9,2.2-4.6,2.4-5.1C41,53.1,40.7,52.5,40.3,53.1"/>
	<path class="st7" d="M43.8,58.3c-1.5,1.1-4.7-0.3-5.4,1.1c-0.1,0.9-1,1.1-1.6,2c2.6,1.3,6.3-1.4,6.7-1.8
		C44.2,58.7,44,58.1,43.8,58.3"/>
	<path class="st7" d="M49.4,65.9c-0.3-0.1-0.7-0.3-0.9-0.5c-0.4,1.2,0.7,2.5,0.3,4.1c-0.7,3.1-0.2,3.1-0.1,3.4
		C50.4,71.7,52.2,68.5,49.4,65.9"/>
	<path class="st7" d="M46.6,62.7c-1.5-1.8-5.3-1.2-6.5,0.9c1.7,0.9,4.4-0.5,6.2,0.5c0.3-0.3,0.9-0.3,1.1-0.3
		C47,63.6,46.7,63.1,46.6,62.7"/>
	<path class="st7" d="M43.5,70.7c2.7-1.9,3.9-3.5,4.8-5.5c-0.2-0.2-0.7-0.7-0.9-1.2C45.6,63.2,43.3,69.2,43.5,70.7"/>
	<path class="st8" d="M36.9,61.3c2.4-0.3,0.9-5.2,0.9-5.9c-0.8,0.9-2.1,2.4-2.1,3.2C35.6,59.6,36.8,59.8,36.9,61.3z"/>
	<path class="st9" d="M36.9,61.3c2.4-0.3,0.9-5.2,0.9-5.9c-0.8,0.9-2.1,2.4-2.1,3.2C35.6,59.6,36.8,59.8,36.9,61.3z"/>
	<path class="st8" d="M35.2,53.3c-0.3,0-1.4,0.7-1.2,0.2c-0.9,0.6-0.9,1.9-1.2,2c-0.3,0-0.6-0.5-0.9-0.5c-0.3,0-0.6,0.7-0.8,1.7
		c0.4-0.6,0.7-0.3,0.9-0.7c0.2-0.3,0.5-0.3,0.6-0.1c0.4,0.7,0.4,0.5,0.5,0.3c0.1-0.2,0.5-0.5,0.7,0c0.3-0.4,1.1-0.5,1.5,0
		c0.1,0.1-0.4,0.3-0.4,0.8c0,0.1,0.4,0.8,0.6,0.8c0.6-0.8,1-1.4,1.5-1.8c0-0.1-0.3-0.6-0.2-1c0-0.2-0.1-0.4-0.4-0.9
		c-0.2,0.1-0.4-0.1-0.6,0C35.8,53.7,35.5,53.3,35.2,53.3z"/>
	<path class="st9" d="M35.2,53.3c-0.3,0-1.4,0.7-1.2,0.2c-0.9,0.6-0.9,1.9-1.2,2c-0.3,0-0.6-0.5-0.9-0.5c-0.3,0-0.6,0.7-0.8,1.7
		c0.4-0.6,0.7-0.3,0.9-0.7c0.2-0.3,0.5-0.3,0.6-0.1c0.4,0.7,0.4,0.5,0.5,0.3c0.1-0.2,0.5-0.5,0.7,0c0.3-0.4,1.1-0.5,1.5,0
		c0.1,0.1-0.4,0.3-0.4,0.8c0,0.1,0.4,0.8,0.6,0.8c0.6-0.8,1-1.4,1.5-1.8c0-0.1-0.3-0.6-0.2-1c0-0.2-0.1-0.4-0.4-0.9
		c-0.2,0.1-0.4-0.1-0.6,0C35.8,53.7,35.5,53.3,35.2,53.3z"/>
	<path class="st7" d="M29.2,52.3C29,52.5,30.6,53,31,56.2c0.2-0.4,0.4-1.6,1.1-1.2c0.1,0.1,0.4,0.3,0.5,0.3c0.2-0.1,0.2-0.5,0.3-0.7
		C32.4,52.8,30.1,51.4,29.2,52.3"/>
	<path class="st8" d="M35,58.1c-0.5,0.4-0.6,1-1,1.3c-0.8,0.6-1.6,2.2-0.3,2.6c1.2,0.3,2.2,0.1,3-0.8c0.1-0.9-0.7-1.5-1-2
		C35.5,58.9,35.7,58.5,35,58.1z"/>
	<path class="st9" d="M35,58.1c-0.5,0.4-0.6,1-1,1.3c-0.8,0.6-1.6,2.2-0.3,2.6c1.2,0.3,2.2,0.1,3-0.8c0.1-0.9-0.7-1.5-1-2
		C35.5,58.9,35.7,58.5,35,58.1z"/>
	<path class="st7" d="M36.9,61.6c-0.2,0-1.2,0.6-1.3,0.9c-0.3,2.4,3.1,3.6,4.3,5.4c0.6,1,1.1,0.9,1.1,0.3
		C40.7,65.8,39.5,62.2,36.9,61.6"/>
	<path class="st8" d="M32.4,56c-0.5,0.1-0.6,1.3-0.2,2c0.5,0.8,1,1.4,0.8,2.5c0.2-0.5,0.3-0.5,0.5-0.8C33.8,59.3,32.7,55.9,32.4,56z
		"/>
	<path class="st9" d="M32.4,56c-0.5,0.1-0.6,1.3-0.2,2c0.5,0.8,1,1.4,0.8,2.5c0.2-0.5,0.3-0.5,0.5-0.8C33.8,59.3,32.7,55.9,32.4,56z
		"/>
	<path class="st8" d="M31.8,56.9c-0.8,0.5-0.5,1.7-0.4,2.3c0.1,0.5,1,1.7,1.5,1.9c0-0.1,0-0.3,0-0.3C33.2,58.8,31.8,58.4,31.8,56.9z
		"/>
	<path class="st9" d="M31.8,56.9c-0.8,0.5-0.5,1.7-0.4,2.3c0.1,0.5,1,1.7,1.5,1.9c0-0.1,0-0.3,0-0.3C33.2,58.8,31.8,58.4,31.8,56.9z
		"/>
	<path class="st7" d="M30.9,57c-2.5-0.8-5.5,0.3-6.7,2.6c-0.2,0.4,0.2,0.9,0.9,0.3c2-1.4,3.8-0.2,5.8-0.5
		C30.9,58.7,30.6,57.7,30.9,57"/>
	<path class="st7" d="M35.4,63c-0.3-0.6-1.1-0.7-1.5-0.6c-2.5,0.8-1.5,4.3-1.3,6.3c0.2,1.6,1,1,1.1,0.3C34.2,66.7,36.2,65.5,35.4,63
		"/>
	<path class="st7" d="M28.8,59.4c-0.5,0.6-2.1,1.9-2.5,2.5c-0.4,0.8,0.4,0.8,0.7,0.6c0.7-0.5,2-0.6,2.8-1.1c0.3-0.3,0.4-0.4,0.9-0.7
		c0.9-0.6,0.2-0.9-0.4-1C29.9,59.6,29.4,59.5,28.8,59.4"/>
	<path class="st7" d="M28.3,67.7c1.5-1.4,2.6-2.8,3.8-4.2c0.8-0.8,0.4-1.7,0-2.6c-0.2-0.4-0.5-0.6-0.9-0.5
		C28.9,61.6,27.8,65.1,28.3,67.7"/>
	<polygon class="st1" points="53.3,46 53.8,44.5 54.6,43.3 59.5,36.6 61.5,33.5 63.2,30.3 63.9,28.2 64.3,25.8 64.5,23.4 64.2,20.6 
		63.6,18.1 62.6,15 61.1,11.6 59.3,8.4 55.4,2.3 56,6.5 55.8,9.4 55,11.6 54.2,13.8 51.9,18 49.2,35.1 49.4,41.5 51.1,49.5 
		52.2,51.9 	"/>
	<polygon class="st2" points="52.2,41.7 51.9,38 52.2,36 51.5,30.7 53.7,23.3 54.1,20.5 54.4,18.4 56.2,21.6 56.6,19.8 56.6,18 
		55.9,15.4 57.4,16.1 57.8,13 57.8,11.4 57,8 59.2,13.1 60.1,16.4 60.3,19.1 60.5,21.5 60.3,23.3 61.3,22.7 60.6,25.3 59.8,27.8 
		60.7,27.7 60.6,29.3 60,30.7 59.2,32.3 57.2,35.3 58,35.7 56.2,38 53,42.2 56.3,34.6 57,32.1 57.7,29.4 58.1,26.1 58.2,23.5 
		57.2,29.4 56.4,32.4 55.3,35.2 	"/>
	<polygon class="st1" points="52.2,48.3 50.8,42.1 50.4,39.7 50.5,37.5 50.8,35.5 51.7,34 53,31.8 53.5,29.5 53.7,26.9 53.5,23.9 
		53.2,21 52.4,17.8 51.5,15.2 50.4,13.1 49.3,11.5 47.6,9.6 46,8.2 44.4,6.8 42.4,5.2 40.6,3.9 39.5,2.8 38.6,1.5 38.2,0 36.3,4.2 
		35.8,5.9 35.5,7.7 35.9,11.1 36.3,13 36.2,15.5 35.6,18.1 35.2,19.7 34.9,21.8 35.1,24 35.6,25.8 36.6,28.3 37.7,30.3 39.2,32 
		41.8,33.6 44.5,34.9 46.4,35.6 47.6,36.4 48.2,38 48.3,39.5 48.4,41.4 48.7,43.4 50,47.8 	"/>
	<polygon class="st2" points="49.5,32.8 49.5,30.6 50.3,27.7 50.6,25.4 49.9,21.2 48.9,23.4 48.6,23.2 48.8,22.3 49.6,20.2 
		49.7,18.1 49.3,16.5 48.4,15.2 47,13.4 47,16.7 46.5,15.8 45.4,13 44.4,11.1 43,9.2 41.4,7.7 40,6.3 38.4,4.2 38.9,7.4 39.4,9.3 
		40.2,11.3 40.7,12.5 40.7,13.4 40.2,13 38.3,10.7 38.9,14 39.5,15.3 40.4,16.7 41.3,18 42.5,19.4 42.9,20.4 42.8,20.9 42.2,21.1 
		41,20.5 39.9,19.3 38.3,17.6 38.8,20.3 39.6,21.7 40.6,23.1 41.9,24.1 42.7,25 42.7,25.5 42.3,25.8 41.1,25.7 38.9,24.8 40.6,27.3 
		41.9,28.5 43,29.7 44.5,30.6 46.9,31.9 48,33.7 48.5,35.6 49.1,38.7 49.5,41.9 49.3,34.9 48.9,31.5 47.9,28 47.6,25.9 47,23.2 
		45.6,19.4 42.9,12.9 45.4,17.8 46.3,20.2 47.4,23.1 48.1,25.4 48.8,28.1 	"/>
	<polygon class="st1" points="56.5,64 56.3,61 56.6,60.6 58.9,59.2 60.3,58.2 61.1,57.2 61.5,56 61.8,53.7 61.7,51.8 61.3,50.2 
		60.9,48.7 60.9,47.6 60.9,47.2 54.9,46.8 52.2,49.4 50.3,51.8 48.6,53.6 47.9,55 47.4,56.5 47.2,57.9 47.5,59 48.2,59.9 49.6,60.5 
		52.7,60.9 54.3,61 54.5,61.3 54.8,64.5 	"/>
	<polygon class="st1" points="51.1,67.3 47.3,65.2 45.8,63.8 44.5,62.3 43,60.3 41.8,58.3 40.2,56.8 38.7,55.7 36.8,53.9 35.7,52.1 
		35.1,50.6 34.4,48.1 34,45.6 33.5,43.1 32.6,39.9 32,37.3 30.4,33.3 35.5,36 39.8,37.5 42.1,38.3 44.2,39.5 46.1,40.7 47.8,42.4 
		49.8,44.6 51.4,46.7 53.5,50.3 58.5,64.4 	"/>
	<polygon class="st2" points="50.4,50.4 49,48.1 47.5,46.1 46.2,44.7 46.8,49 45,47 44.5,45.2 44.1,44.1 43.4,42.6 42.6,44.5 
		41,43.3 40.7,42.2 40.3,40.9 38.9,38.9 39.4,42.5 37.9,40.6 36.7,39 34.9,37.6 36.7,42.5 37.7,44.2 39.5,46.4 38.1,45.9 35.8,44.8 
		39.4,49.3 41.1,50.8 41.6,51.5 40.5,51.8 38.5,51.8 41.8,53.5 43.4,54.1 45.6,55.7 47,57.2 48.6,58.9 44.5,57.9 47.2,59.8 
		50.3,62.1 56.6,65.7 	"/>
	<polygon class="st1" points="62.8,59 66.7,54 68.1,52.5 69.5,51.4 70.8,50.6 72.2,50 74.1,49.6 75.7,49.4 78.1,49.4 80.2,49.7 
		83,50 84.8,50.2 86.8,50.2 88.7,49.9 90.6,49.8 92.9,49.4 95.2,48.7 97.1,48 98.8,47.2 100.3,46.4 98.4,49.4 96.8,51.4 95.6,52.8 
		94,54.1 92.1,55.3 90.5,56.2 89,56.8 87.1,57.3 85.4,58.2 84.6,58.8 83.6,59.6 82.4,60.9 80.8,62.5 78.5,64.8 77.1,66 75.8,67 
		74.4,67.7 	"/>
	<polygon class="st2" points="68.7,57.5 69.8,56 70.7,55.1 71.8,54.4 73.8,53.7 75.4,52.6 76.9,51.4 76.1,52.9 75.2,54.3 73.9,55.5 
		75.8,54.6 77,53.8 78.1,53.1 80.6,52 82.5,50.9 82.1,51.9 81.5,52.9 80.6,53.7 81.7,53.7 82.7,53.5 85.3,52.3 88.2,51.1 88,51.7 
		89.7,51.6 91.3,51.4 92.9,50.9 96.2,49.4 92.8,52.1 91.7,52.6 90.4,53 87.2,54.1 85.4,55.1 83.9,56.2 80.7,57.8 83.2,57.9 81.1,59 
		79.8,59.5 78.4,60 76.4,60.6 78.7,60.7 77.5,61.7 75.2,62.9 73.6,63.3 69.5,61.9 72.2,59.2 73.9,58 76,56.8 73.5,57.7 72.3,58.4 
		70.9,59.3 65.9,62.3 	"/>
	<polygon class="st1" points="48.1,71.5 42.9,65.7 40.9,64.3 38.6,63.3 36.8,62.9 34.9,62.9 32.7,63.5 31.6,64 20.7,72.9 14.9,91.4 
		15.8,93.8 16.7,95.4 17.6,99 19.5,102.8 20.7,105.8 21.1,108.2 21.5,110.9 21.1,112.7 21.1,113.5 21.8,111.2 23.4,109.3 
		24.3,107.4 25,105.5 25.8,103.2 32.7,85.3 33.2,82.5 33.2,80.5 32.8,78.6 32.8,76.3 33.2,74 33.2,71.7 32.4,69.4 32,68.3 
		32.4,66.3 38.6,65.9 41.4,67.1 47.2,73.2 	"/>
	<polygon class="st1" points="59.5,100.7 59.9,99.2 60.6,97.3 61.6,95.5 63,93.8 64.4,92.7 65.4,92.2 66.7,91.7 68.7,91.3 
		70.7,90.5 72,90.3 73.4,90.3 74.9,90.6 76.5,91.3 80.4,96.6 81.5,99.1 82,100.5 82.2,101.9 82.2,103 82,104.2 81.6,105.1 
		80.8,106.3 80,107.4 78.5,109.3 76.5,111.6 76.5,109.7 76.1,107.4 75.7,105.5 75.4,104.5 75,103.8 74.1,102.8 73,101.6 72.2,100.9 
		71.1,99.8 70.4,98.7 69.9,97.6 69.8,96.6 69.8,95.1 69.8,93.6 69.5,93 68.3,92.9 66.5,93.2 65.3,93.7 63.9,94.8 62.8,96 61.9,97.5 
		61.3,98.9 60.8,100.6 	"/>
	<polygon class="st1" points="48.8,69 46,67 43.4,65.7 41.2,65.1 39,64.7 36.7,64.6 33.6,64.7 30.4,65.2 24.2,65.9 22.1,66.4 
		19.9,67.1 16.4,68.9 12.9,71.3 5.9,79.7 4.3,86.3 1.6,91.2 0.6,93.2 0,95.4 0,97 0,101.2 1.3,99.5 2.5,98.5 4.6,97.2 6.7,96.6 
		8.8,95.9 10.9,95 12.9,93.6 14.8,92.2 16.4,90.5 17.6,88.6 18.4,86.3 18.9,84.5 19.6,83.6 21.1,82.5 23.8,80.7 25.6,78.8 
		26.7,77.3 27.7,75.6 28.3,74 28.9,72.4 29.3,70.2 29.7,68.6 31.6,67.1 34.9,66.5 37.3,66.5 39.2,66.7 41.6,67.1 43.9,67.9 46,69 
		48.4,70.9 	"/>
	<polygon class="st2" points="29,66.5 25.2,67.3 22.5,68.3 19.7,69.5 16.8,70.8 14.8,72.1 14.2,72.9 14.3,73.4 15.2,73.2 16.8,73 
		13.6,74.9 11,76.7 8.7,79.2 7.5,80.9 12.4,78.7 12.8,78.9 12.8,79.4 12.1,79.8 9.3,81 5.9,83.1 8.7,83.9 6.2,86.3 4.7,88 3.5,90.2 
		2.9,91.8 4.3,91.4 2.6,93.4 1.9,94.4 1.7,95.3 1.2,97.1 2.7,95 5.7,92.9 7.3,91.6 8.5,90.4 10.4,87.2 11.3,85.5 11.3,89.8 
		12.5,87.5 13.5,86.5 14,85.5 15,83 16.9,79.9 16.2,84.8 17.6,82.6 18.8,81.3 20,80 20.9,78 21.7,79.2 22.4,77.4 23.1,76 23.8,74.4 
		24.6,72.5 25.9,70.6 27.6,69 25.6,70.2 23.7,71.3 21.6,72.6 20,74 16.4,77.9 18.9,74.2 20.9,71.9 22.5,70.7 23.8,69.8 	"/>
	<polygon class="st1" points="51.3,53.3 49.1,51.5 46.5,49.8 44.1,48.5 41.4,47.5 38.5,46.5 36.3,45.9 33.3,45.5 30,45.4 27.3,45.6 
		23.8,46 20.3,46 16.8,46.4 14.4,47.2 12.8,48.4 11.7,50.2 11,51.8 9.9,53.5 8.7,54.8 6.9,56.4 5.5,57.5 4.4,58.9 3.1,61.1 
		2.4,62.9 1.8,65.2 1.7,67.7 1.5,70.2 1.3,72.6 1.3,74.8 2.1,78.6 3,80.9 4.7,84.5 5,85.6 5.3,86.7 5.7,89.8 6.3,87.9 6.7,86.4 
		6.9,84.8 7,84 9.1,79 11.6,73.7 14.1,68.9 16.8,64.4 19,60.8 21.1,57.2 23.5,53.7 26.3,50.5 29.3,48.3 30.4,47.9 31.7,47.5 
		34,47.5 36.5,48 38.9,48.6 40.8,49.3 42.7,50.1 45.1,51.4 47.5,52.8 49.6,54.1 52.3,56 	"/>
	<polygon class="st2" points="23.3,46.4 20,47.8 17.6,48.8 12.9,50.9 15.6,50.6 17.5,51 19.6,51.6 18.2,53.1 15.1,54 12.9,54.6 
		11.3,55.6 14.5,56 12,57 10.7,57.6 8.7,58.7 7.2,59.9 9.8,59 11.9,58.8 7.4,61.1 5.9,62.2 4.1,63.5 6.2,63.5 7.1,63.4 7.9,63.6 
		7,65.4 5.4,67.4 4.2,69.5 3.1,72.5 5.5,70.2 7.2,68.7 5.6,72.9 5.2,75.1 5.1,78.1 5.6,83.4 6.7,76.7 7.4,75.1 8.4,73.5 10.2,71.3 
		10.2,69 10.6,65.9 11.3,64 12.5,62.5 14,60.2 15.6,58.4 15.4,57 16.5,55.4 18.4,53.1 19.9,51.3 21.6,49.7 23,48.6 24.6,47.8 
		26.7,47.2 28.9,46.8 33.2,46.4 25.1,46.1 	"/>
	<polygon class="st1" points="68,87.4 69.5,86.4 70.7,86.1 72.6,85.9 74,86 74.7,86.6 75.4,88.3 75.8,90.6 76.1,92.9 76.6,94.7 
		77.7,96.2 78.9,97.3 80.4,97.9 83.2,98.6 85.5,99 88.6,99.8 90.2,100.7 91.2,101.6 92.2,102.8 92.9,105.1 92.9,101.7 92.7,98.7 
		92.3,96 91.9,94.4 91.4,93.3 90.6,92.1 88.6,90.2 86.7,88.3 85.5,85.6 84.4,84.4 83.1,83.4 81.6,82.9 80.2,82.8 78.9,82.9 
		76.9,83.7 75.3,83.8 74.3,83.8 72.7,83.9 71,84.1 69.5,84.7 68.3,85.4 67.1,86.8 64.1,91.7 	"/>
	<polygon class="st2" points="69.7,85.5 71.8,85.2 73.2,85.2 74.4,85.4 75.4,85.9 76.2,86.5 76.9,87.9 77.4,90 78,92.1 78.9,94 
		79.2,91.5 80,90.6 80.1,92.9 80.4,94.3 81.2,95.9 82,94 82.8,93.2 83.9,96.8 84.8,94.6 86.8,95.8 88.1,96.5 90,97.9 89,95.9 
		87.9,94.5 87.1,93.6 87.9,93.3 86.7,91.8 85.2,90.4 85.2,90 85.7,89.8 87.1,90.2 85.6,88.8 84.7,87.4 83.5,86.2 82,85.5 83.2,84.8 
		81.5,84.2 79.7,83.9 76,84.3 78,85.1 79,85.8 80.5,87.2 78.4,86 76.4,85.3 75.1,84.8 74.3,84.6 73.2,84.5 71.7,84.7 	"/>
	<path class="st10" d="M50.2,45.3c-0.1-0.5-0.6-1-1-1.2c-0.3-0.4,0.5-1.5,1-1.8c0.1,0.2,0.2,0.4,0.4,0.5c0.2-0.9,0.8-1.4,1.4-1.8
		c0.3-0.2,0.5-0.7,0.6-0.5c0.3,0.4,0.7,0.5,1,1.1c-0.3,1-0.4,2-0.3,2.7c0,0.2-0.2,0.3-0.4,0.4c-0.5-0.6-1-1.3-1.4-2.3
		C51.3,43.1,50.3,44.1,50.2,45.3z"/>
	<path class="st10" d="M54.2,47.3c0-0.4-0.3-1-0.5-1.3c-0.5-1.4-0.3-3.7,0.2-4.8c0.1-0.2,0.2-0.6,0.3-0.4c0.2,0.4,0.4,0.8,0.8,1.8
		C55.3,43.1,55.7,46.2,54.2,47.3z"/>
	<path class="st10" d="M48.2,43.7c1.1,0.6,1.9,0.8,2,1.8c0,0.5-0.2,1,0,1.2c-0.5-0.2-1.3-1.1-1.7-2C48.3,44.3,47.9,43.5,48.2,43.7z"
		/>
	<path class="st10" d="M54.1,47.4c-1,0.8-2.9,0.4-3.7-0.6c-0.2-0.3-0.2-1.1,0.2-2.1c0.2-0.6,0.9-1.5,1-2
		C51.8,44,54.2,46.3,54.1,47.4z"/>
	<path class="st10" d="M58.2,42.3c0.3-0.2,0.7-0.4,0.8-0.2c0.2,0.4-0.3,0.4-0.6,1.1c-0.5,1.4-1.5,3.2-3.7,3.9c0.3-0.4,0.6-1.4,0.6-2
		C56.5,43.5,57.7,42.5,58.2,42.3z"/>
	<path class="st10" d="M50.3,46.9c0.3,0.3,0.7,0.7,1.4,0.9c-0.4,0-1.6,0.3-2.4,1c-0.7-0.2-2.1,0.2-3.3,0.1c-0.5-0.1-1.4-0.1-1.2-0.5
		c0.3-0.5,1.4-1.2,3.1-1.5C48.3,46.9,49.9,46.6,50.3,46.9z"/>
	<path class="st10" d="M51.7,47.9C52,48,52.6,48,52.9,48c-0.4,1.4-2.1,1.9-2.7,3.6c-0.6,1.6-1,2.4-1.3,2.7c-0.3,0.3-0.5,0.6-0.6,0.4
		C47.2,52.7,47.6,48.7,51.7,47.9z"/>
	<polygon class="st1" points="54.2,47.6 55.9,47.3 57.5,47.3 59,47.5 61.3,47.8 64.2,48 67.4,48.1 65.9,46.1 65.2,44.3 64.5,42.5 
		63.8,41.7 63.2,41.4 62.4,41.1 61.4,41.4 60.5,42.2 58.9,44.1 57.5,45 56.5,45.4 55.4,46 54.3,46.8 53.1,48.4 	"/>
	<polygon class="st2" points="56.4,45.7 58,45.6 59,45.7 60.2,46.1 60.1,45.3 61.1,45.8 62.3,46.2 65.2,46.7 63.1,45.5 62.3,44.8 
		61.8,44 63.1,44.2 62.3,43.2 61.4,42.7 60.5,42.6 59,44.1 	"/>
	<path class="st10" d="M56.2,46.7c2.5-0.8,5.5,2,5.4,4.6c-2.1-0.1-3.8-3-5.9-3.1c-0.1-0.5-0.6-0.8-0.8-0.9
		C55.3,47.2,55.9,46.9,56.2,46.7z"/>
	<path class="st10" d="M54.2,55.7c-0.1-0.3-0.2-0.6-0.3-0.8c-1-2.8-1.4-4.9-0.8-7c0.1-0.3,1-0.3,1.5-0.6c1.9,0.3,0.9,5.6,0,7.7
		C54.5,55.3,54.3,55.9,54.2,55.7z"/>
	<path class="st10" d="M52.9,48.3c-0.1,0.5-0.2,2.3-0.1,2.8c0,0.5-0.3,1.5-0.8,2.2c-0.1,0.2-0.2,0.6-0.4,0.4
		c-0.7-0.7-0.5-2.7-0.4-3.2C51.6,50,52.7,49,52.9,48.3z"/>
	<path class="st8" d="M50.2,45.3c-0.1-0.5-0.6-1-1-1.2c-0.3-0.4,0.5-1.5,1-1.8c0.1,0.2,0.2,0.4,0.4,0.5c0.2-1.3,1.6-1.8,2-2.3
		c0.1,0.5,0.7,0.5,1,1.1c-0.3,1-0.4,2-0.3,2.7c0,0.2-0.2,0.3-0.4,0.4c-0.5-0.6-1-1.3-1.4-2.3C51.3,43.1,50.4,44.1,50.2,45.3z"/>
	<path class="st9" d="M50.2,45.3c-0.1-0.5-0.6-1-1-1.2c-0.3-0.4,0.5-1.5,1-1.8c0.1,0.2,0.2,0.4,0.4,0.5c0.2-1.3,1.6-1.8,2-2.3
		c0.1,0.5,0.7,0.5,1,1.1c-0.3,1-0.4,2-0.3,2.7c0,0.2-0.2,0.3-0.4,0.4c-0.5-0.6-1-1.3-1.4-2.3C51.3,43.1,50.4,44.1,50.2,45.3z"/>
	<path class="st8" d="M54.3,47.3c0-0.4-0.3-1-0.5-1.3c-0.6-1.6-0.2-4.5,0.5-5.3c0,0.2,0.1,0.4,0.3,0.6c0.2,0.3,0.4,0.6,0.6,1.2
		C55.3,43.1,55.7,46.2,54.3,47.3z"/>
	<path class="st9" d="M54.3,47.3c0-0.4-0.3-1-0.5-1.3c-0.6-1.6-0.2-4.5,0.5-5.3c0,0.2,0.1,0.4,0.3,0.6c0.2,0.3,0.4,0.6,0.6,1.2
		C55.3,43.1,55.7,46.2,54.3,47.3z"/>
	<path class="st8" d="M48.2,43.7c0.1,0.1,0.2,0.2,0.4,0.3c0.8,0.6,1.6,0.7,1.7,1.5c0,0.5-0.2,1,0,1.2C49.5,46.4,48.4,44.9,48.2,43.7
		z"/>
	<path class="st9" d="M48.2,43.7c0.1,0.1,0.2,0.2,0.4,0.3c0.8,0.6,1.6,0.7,1.7,1.5c0,0.5-0.2,1,0,1.2C49.5,46.4,48.4,44.9,48.2,43.7
		z"/>
	<path class="st8" d="M54.1,47.4c-1,0.8-2.9,0.4-3.7-0.6c-0.2-0.3-0.2-1.1,0.2-2.1c0.2-0.6,0.9-1.5,1-2C51.8,44,54.2,46.3,54.1,47.4
		z"/>
	<path class="st9" d="M54.1,47.4c-1,0.8-2.9,0.4-3.7-0.6c-0.2-0.3-0.2-1.1,0.2-2.1c0.2-0.6,0.9-1.5,1-2C51.8,44,54.2,46.3,54.1,47.4
		z"/>
	<path class="st7" d="M58.2,42.3c0.3-0.2,0.7-0.4,0.8-0.2c0.2,0.4-0.3,0.4-0.6,1.1c-0.5,1.4-1.6,3.4-3.9,3.9c0.3-0.4,0.8-1.4,0.8-2
		C56.5,43.5,57.7,42.5,58.2,42.3"/>
	<path class="st7" d="M50.3,46.9c0.3,0.3,0.7,0.7,1.4,0.9c-0.4,0-1.6,0.3-2.4,1c-0.9-0.3-3.4,0.7-4.5-0.4c0.6-0.2,1.4-1.2,3.1-1.5
		C48.3,46.9,50,46.6,50.3,46.9"/>
	<path class="st7" d="M51.8,47.9c0.3,0.1,0.8,0.1,1.1,0.1c-0.4,1.4-2.1,1.9-2.7,3.6c-1.2,3.3-1.7,2.9-1.9,3.1
		C47.4,52.7,47.7,48.7,51.8,47.9"/>
	<path class="st7" d="M56.3,46.7c2.5-0.8,5.5,2,5.4,4.6c-2.1-0.1-3.8-3-5.9-3.1c-0.1-0.5-0.6-0.8-0.8-0.9
		C55.3,47.2,55.9,46.9,56.3,46.7"/>
	<path class="st7" d="M54.3,55.7c-1.3-3.2-1.5-5.4-1.1-7.7c0.3-0.1,1-0.3,1.5-0.6C56.8,47.6,55.3,54.5,54.3,55.7"/>
	<path class="st7" d="M53,48.3c-0.1,0.5-0.2,2.3-0.1,2.8c0,0.6-0.5,1.9-1.2,2.6c-0.6-0.8-0.5-2.7-0.4-3.2C51.7,50.1,52.7,49,53,48.3
		"/>
	<polygon class="st1" points="53.3,64.9 54,64 55.2,63.1 56.3,62.4 59.4,61.1 60.1,60.2 61.3,58.7 62.8,57.5 64.2,57 65.6,57 
		67,57.3 68.4,57.7 69.8,58.3 71.1,59.4 72.2,60.8 73,62.5 73.8,64.8 74.9,67.5 75.7,68.6 77.7,70.2 78.5,70.9 79.3,72.1 79.6,73.2 
		80,75.2 80.4,77.1 81.2,79.4 82,80.5 83.6,82.8 80.4,80.9 77.7,80.5 75.4,80.3 73,80.4 70.5,80.1 68.5,79.5 66.8,78.6 65.4,77.5 
		64.4,76.4 63,75.1 62.1,74.4 61.2,73.7 59.2,72.9 	"/>
	<polygon class="st2" points="58.9,63.4 60.6,62.4 62.6,63.4 63.9,64.2 65.1,65.3 67.3,67.3 65.3,64.8 64,63.5 62.6,62.4 61.2,61.5 
		62,60.3 62.7,59.7 64,59.3 65.7,59.4 67.5,59.8 65.7,60.2 64.8,60.7 64.8,61.7 65.9,62.8 67.2,62.9 68.6,62.8 70.6,62.9 71.6,63.5 
		73.2,64.5 70.2,64.7 70,65.1 70.4,65.5 71.4,65.9 72.2,66.7 73.1,68 74.4,69.2 75.9,70.2 74.4,70.1 74.5,71.1 75.2,72.1 75.7,73.2 
		74.3,73.1 74.7,74.2 75.4,75.2 76.3,76.2 79.6,78.6 74.1,75.9 72.5,75 71.1,73.8 69.8,72.5 69.5,74.3 69.5,76.7 67.8,74.1 
		67.3,72.5 67,70.7 66.5,69.4 65.9,68.9 65.5,68.9 65,69.3 64.5,70.5 64.1,72.2 62.9,70.5 62.4,69.4 61.8,68.1 61.6,67 61.3,65.9 
		60.7,66.2 60.1,67 58,70.4 57.7,66 58,64.5 	"/>
	<polygon class="st1" points="57.4,91.7 57.2,100.6 58.5,100.5 58.7,92.4 	"/>
	<polygon class="st1" points="56.2,96.6 56,95 55.8,93.4 55.4,91.7 54.8,90 52.2,88.7 53.5,90.3 54.2,91.5 54.6,92.7 55,94.6 
		56.5,100.3 	"/>
	<polygon class="st1" points="48.1,100.3 49.3,100.4 48.5,98.7 47.9,97.9 46.9,97.1 45.7,96.6 45.2,95.7 44.4,94.7 43.3,94.1 
		41.4,93.6 35.1,97.8 38.4,98.7 41,99 42.9,98.9 44.4,98.5 45.7,98.2 46.6,98.5 47.5,99.1 	"/>
	<polygon class="st1" points="55.2,100.8 54.2,96.6 53.7,95.3 53.1,94 52.1,92.8 50.6,91.6 48.8,90.6 46.8,89.8 44.1,88.6 
		42.7,87.1 41,85.9 39.2,85.3 36.7,85 34.4,84.9 32.6,85 30.6,85.5 28.9,86.5 27.7,87.4 26.3,89.2 24.6,92.5 23.5,94.1 22.1,95.3 
		19.4,96.7 17.6,97.6 16.3,98.6 15.4,99.5 14.8,100.5 14,103.2 13.7,105.5 13.3,107.8 13.3,110.1 14.2,108.6 15.2,107.4 16.5,106.3 
		18.4,105.4 20.5,104.5 23.4,103.5 25.8,103.2 28.1,103.2 29.8,103.1 31.7,102.5 33.3,101.9 35.1,100.5 36.3,99.4 37.4,98.1 
		39.7,96.1 41.8,94 43.7,92.1 44.9,91.7 46.8,91.9 48.4,92.5 49.9,93.6 51.1,94.7 51.8,95.6 52.3,96.6 52.9,98.1 53.3,99.7 
		53.4,100.8 	"/>
	<polygon class="st2" points="49,91.4 45.6,89.7 43.9,89.1 42.4,88.9 40.7,88 38.8,87.7 35.7,87.7 32.4,88.2 30.1,88.9 31.6,90.1 
		32,90.5 29.8,90.6 28.8,90.9 27.7,91.3 25.7,92.5 28.3,92.5 27.2,93 25.9,93.8 24.2,95.1 22.2,96.9 19.1,99 17.1,101.3 16,103.4 
		18.8,101.5 20.1,100.8 21.4,100.3 20.9,101.5 23.2,100.2 25.4,99.3 27.7,98.6 27.7,99.7 30.1,98.2 31.4,96.6 32.5,95.6 34.5,93.9 
		33.3,96.2 32.3,97.4 35.1,95.5 36.5,94.2 37.5,92.8 38.4,91.9 39.8,91.3 41.7,90.4 39.2,90.4 37.4,90.6 35.6,90.9 32.1,92.4 
		33.6,91.1 35.4,90 37.5,89.5 39.3,89.4 41.7,89.9 43.7,89.9 45.6,90.3 	"/>
	<polygon class="st1" points="62.8,76.3 61.5,83.6 61,86.5 60.5,89.3 60.9,91.2 62.3,85.5 63.3,80.2 63.7,78.2 	"/>
	<polygon class="st1" points="64.6,78.9 63.2,86.3 63.6,88.9 64,88.9 65.6,80.6 	"/>
	<polygon class="st1" points="51.3,64.9 49.8,65.3 48.9,66 48.2,67.2 47.6,68.6 46.8,70.6 46.4,71.7 44.6,72.6 43.3,73.2 41.6,74.5 
		40.2,75.9 39.7,77.6 39.7,78.7 40.2,79.6 41.4,80.9 42.9,81.7 44.3,82.1 46.2,82.5 49.1,82.7 50.5,82.7 53.1,82.8 54.7,83 56.4,83 
		57.4,83.2 58.5,83.6 60.5,84.8 61.3,85 62.6,85.8 63.2,86.7 63.3,85.3 63.2,84 63.2,82.1 62.8,80.3 62.1,78.6 60.9,76.3 60.2,74.9 
		59.7,73.6 59.3,71.7 58.5,69.5 58,68.1 57.5,67.2 56.4,66.3 55.3,65.5 54.3,64.9 53,64.8 	"/>
	<polygon class="st2" points="44.1,74 45,73.8 44.2,74.8 43.7,75.9 43.5,77.1 43.5,78.2 44.5,76.9 45.7,75.9 48,74.9 48.1,77.2 
		48.4,78.5 49.8,76.8 50.6,76.3 52.3,77.1 54.1,77.6 56,78.3 58.8,79.9 57.3,77.7 56.4,76.7 55.1,75.6 53.2,74 53.1,73.2 53.8,72.7 
		56.5,71.7 54.7,71.4 52.6,71.3 50.5,71.6 52.8,69.7 49.7,69.1 49.6,67.1 47.6,68.9 47.1,70.3 46.6,71.8 44.4,72.8 43.3,73.4 
		42.7,73.8 40.9,75.1 42.6,74.4 	"/>
	<polygon class="st1" points="59.3,92.7 60.5,93.2 59.6,97.9 59.3,99.9 59,96.1 59.2,94.1 59.2,93.7 	"/>
	<polygon class="st1" points="48.5,85.8 49.6,87 50.8,91.3 49.6,90.6 	"/>
	<polygon class="st1" points="48.2,94.9 48.7,98.5 49.3,99.4 49.7,100.2 50,100.2 49.2,95.3 49,95.1 48.7,94.9 	"/>
	<polygon class="st1" points="49.7,95.5 50.5,100.3 51.4,100.4 50.6,95.9 50.2,95.6 	"/>
	<polygon class="st1" points="47,94.7 47.1,96.8 48.1,97.5 47.9,94.9 	"/>
	<path class="st11" d="M25.2,83.3c0-0.2,0.2-0.3,0.3-0.4c0.1-0.1-0.2-0.5-0.3-0.6c0,0.1-0.1,0.1-0.1,0.1c-0.1-0.3-0.3-0.5-0.5-0.6
		c-0.1-0.1-0.2-0.2-0.2-0.2c-0.1,0.1-0.2,0.2-0.3,0.4c0.1,0.3,0.1,0.7,0.1,0.9c0,0.1,0.1,0.1,0.1,0.1c0.2-0.2,0.3-0.4,0.4-0.8
		C24.8,82.5,25.1,82.9,25.2,83.3"/>
	<path class="st11" d="M23.8,83.9c0-0.1,0.1-0.3,0.2-0.4c0.2-0.5,0.1-1.2-0.1-1.6c0-0.1-0.1-0.2-0.1-0.1c-0.1,0.1-0.1,0.2-0.3,0.6
		C23.5,82.5,23.4,83.5,23.8,83.9"/>
	<path class="st11" d="M25.8,82.7c-0.4,0.2-0.6,0.3-0.7,0.6c0,0.2,0.1,0.3,0,0.4c0.2-0.1,0.4-0.4,0.6-0.7
		C25.8,82.9,25.9,82.7,25.8,82.7"/>
	<path class="st11" d="M23.9,83.9c0.3,0.3,0.9,0.1,1.2-0.2c0.1-0.1,0.1-0.3-0.1-0.7c-0.1-0.2-0.3-0.5-0.3-0.7
		C24.7,82.8,23.9,83.6,23.9,83.9"/>
	<path class="st11" d="M22.5,82.3c-0.1-0.1-0.2-0.1-0.3-0.1c-0.1,0.1,0.1,0.1,0.2,0.4c0.2,0.4,0.5,1,1.2,1.3
		c-0.1-0.1-0.2-0.4-0.2-0.7C23.1,82.6,22.7,82.3,22.5,82.3"/>
	<path class="st11" d="M25.1,83.8c-0.1,0.1-0.2,0.2-0.4,0.3c0.1,0,0.5,0.1,0.8,0.3c0.2-0.1,0.7,0.1,1.1,0c0.2,0,0.5,0,0.4-0.2
		c-0.1-0.2-0.5-0.4-1-0.5C25.8,83.8,25.3,83.7,25.1,83.8"/>
	<path class="st11" d="M24.7,84.1c-0.1,0-0.3,0-0.4,0c0.1,0.5,0.7,0.6,0.9,1.2c0.2,0.5,0.3,0.8,0.4,0.9c0.1,0.1,0.2,0.2,0.2,0.1
		C26.2,85.7,26,84.4,24.7,84.1"/>
	<path class="st11" d="M23.2,83.9c-0.8-0.3-1.8,0.7-1.8,1.5c0.7,0,1.2-1,1.9-1c0-0.2,0.2-0.3,0.3-0.3C23.5,84.1,23.3,84,23.2,83.9z"
		/>
	<path class="st12" d="M23.2,83.9c-0.8-0.3-1.8,0.7-1.8,1.5c0.7,0,1.2-1,1.9-1c0-0.2,0.2-0.3,0.3-0.3C23.5,84.1,23.3,84,23.2,83.9z"
		/>
	<path class="st11" d="M23.8,86.7c0-0.1,0.1-0.2,0.1-0.3c0.3-0.9,0.5-1.6,0.3-2.3c0-0.1-0.3-0.1-0.5-0.2c-0.6,0.1-0.3,1.9,0,2.5
		C23.8,86.5,23.8,86.7,23.8,86.7"/>
	<path class="st11" d="M24.3,84.2c0,0.2,0.1,0.7,0,0.9c0,0.2,0.1,0.5,0.3,0.7c0,0.1,0.1,0.2,0.1,0.1c0.2-0.2,0.2-0.9,0.1-1
		C24.7,84.8,24.4,84.5,24.3,84.2"/>
	<path class="st11" d="M25.2,83.3c0-0.2,0.2-0.3,0.3-0.4c0.1-0.1-0.2-0.5-0.3-0.6c0,0.1-0.1,0.1-0.1,0.1c-0.1-0.4-0.5-0.6-0.7-0.8
		c0,0.1-0.2,0.2-0.3,0.4c0.1,0.3,0.1,0.7,0.1,0.9c0,0.1,0.1,0.1,0.1,0.1c0.2-0.2,0.3-0.4,0.4-0.8C24.8,82.5,25.1,82.9,25.2,83.3"/>
	<path class="st11" d="M23.8,83.9c0-0.1,0.1-0.3,0.2-0.4c0.2-0.5,0.1-1.5-0.2-1.7c0,0.1,0,0.1-0.1,0.2c-0.1,0.1-0.1,0.2-0.2,0.4
		C23.5,82.5,23.4,83.5,23.8,83.9"/>
	<path class="st11" d="M25.8,82.7c0,0-0.1,0.1-0.1,0.1c-0.3,0.2-0.5,0.2-0.5,0.5c0,0.2,0.1,0.3,0,0.4C25.4,83.6,25.8,83.1,25.8,82.7
		"/>
	<path class="st11" d="M23.9,83.9c0.3,0.3,0.9,0.1,1.2-0.2c0.1-0.1,0.1-0.3-0.1-0.7c-0.1-0.2-0.3-0.5-0.3-0.7
		C24.7,82.8,23.9,83.6,23.9,83.9"/>
	<path class="st11" d="M22.5,82.3c-0.1-0.1-0.2-0.1-0.3-0.1c-0.1,0.1,0.1,0.1,0.2,0.4c0.2,0.4,0.5,1,1.2,1.3
		c-0.1-0.1-0.2-0.4-0.2-0.7C23.1,82.6,22.7,82.3,22.5,82.3"/>
	<path class="st11" d="M25.1,83.8c-0.1,0.1-0.2,0.2-0.4,0.3c0.1,0,0.5,0.1,0.8,0.3c0.3-0.1,1.1,0.2,1.5-0.1c-0.2-0.1-0.5-0.4-1-0.5
		C25.8,83.8,25.3,83.7,25.1,83.8"/>
	<path class="st11" d="M24.7,84.1c-0.1,0-0.3,0-0.4,0c0.1,0.5,0.7,0.6,0.9,1.2c0.4,1.1,0.5,1,0.6,1C26.1,85.7,26,84.4,24.7,84.1"/>
	<path class="st11" d="M23.2,83.7c-0.8-0.3-1.8,0.7-1.8,1.5c0.7,0,1.2-1,1.9-1c0-0.2,0.2-0.3,0.3-0.3C23.5,83.9,23.3,83.8,23.2,83.7
		z"/>
	<path class="st13" d="M23.2,83.7c-0.8-0.3-1.8,0.7-1.8,1.5c0.7,0,1.2-1,1.9-1c0-0.2,0.2-0.3,0.3-0.3C23.5,83.9,23.3,83.8,23.2,83.7
		z"/>
	<path class="st11" d="M23.8,86.7c0.4-1.1,0.5-1.8,0.4-2.5c-0.1,0-0.3-0.1-0.5-0.2C23,84,23.5,86.3,23.8,86.7"/>
	<path class="st11" d="M24.3,84.2c0,0.2,0.1,0.7,0,0.9c0,0.2,0.2,0.6,0.4,0.9c0.2-0.3,0.2-0.9,0.1-1C24.7,84.8,24.4,84.5,24.3,84.2"
		/>
	<path class="st14" d="M34.8,75.7c0-0.5-0.4-1.1-0.8-1.3c-0.2-0.4,0.7-1.3,1.3-1.5c0,0.2,0.2,0.4,0.3,0.5c0.3-0.8,1.1-1.2,1.7-1.5
		c0.3-0.1,0.6-0.6,0.7-0.4c0.2,0.4,0.6,0.6,0.7,1.2c-0.5,1-0.8,1.9-0.8,2.6c0,0.2-0.2,0.3-0.4,0.3c-0.4-0.7-0.8-1.4-0.9-2.4
		C36.2,73.8,35.1,74.6,34.8,75.7z"/>
	<path class="st14" d="M38.2,78.3c0-0.4-0.2-1-0.3-1.4c-0.2-1.4,0.4-3.6,1.1-4.6c0.1-0.2,0.3-0.5,0.4-0.4c0.1,0.5,0.3,0.8,0.5,1.9
		C40,74.5,39.8,77.5,38.2,78.3z"/>
	<path class="st14" d="M33.1,73.8c1,0.8,1.7,1.1,1.6,2c0,0.4-0.3,0.9-0.2,1.1c-0.5-0.3-1-1.2-1.3-2.2C33.1,74.4,32.8,73.6,33.1,73.8
		z"/>
	<path class="st14" d="M38,78.4c-1.1,0.6-2.8-0.1-3.4-1.3c-0.2-0.3,0-1,0.6-2c0.3-0.6,1.1-1.2,1.3-1.7C36.5,74.8,38.3,77.4,38,78.4z
		"/>
	<path class="st14" d="M42.9,74.2c0.4-0.1,0.8-0.2,0.8,0c0.1,0.4-0.4,0.4-0.8,1c-0.7,1.2-2,2.8-4.2,3.1c0.3-0.3,0.8-1.2,1-1.8
		C41.1,75,42.4,74.4,42.9,74.2z"/>
	<path class="st14" d="M34.5,77.2c0.2,0.4,0.6,0.8,1.1,1.1c-0.3,0-1.6,0-2.5,0.5c-0.6-0.3-2.1-0.1-3.2-0.5c-0.4-0.1-1.3-0.3-1-0.7
		c0.3-0.4,1.5-0.9,3.3-0.9C32.6,76.9,34.3,76.9,34.5,77.2z"/>
	<path class="st14" d="M52.1,75.2c-0.1,0.5,1.6,2.3,1.1,3.6c-0.2,0.2-0.5,0.5-0.7,0.6c0-0.3,0-0.8,0-1c-0.6,0.5-2.7,1.9-3.2,2.6
		c-0.3-3.1,1.7-5.1,1.9-5.6C51.5,74.6,52.2,74.4,52.1,75.2z"/>
	<path class="st14" d="M45.7,76.6c0.4,1.9,3.8,3.1,3.3,4.7c-0.6,0.7-1,1.6-0.7,2.3c-2.7-1-3.2-5.2-3.3-5.8
		C45,76.6,45.6,76.3,45.7,76.6z"/>
	<path class="st14" d="M35.7,78.4c0.3,0.1,0.8,0.2,1.1,0.3c-0.6,1.3-2.3,1.4-3.2,3c-0.9,1.5-1.4,2.1-1.8,2.4
		c-0.3,0.3-0.6,0.5-0.7,0.3C30.5,82.3,31.7,78.5,35.7,78.4z"/>
	<path class="st14" d="M40.3,78c2.5-0.3,4.9,2.9,4.3,5.3c-2-0.5-3-3.5-5.1-4c0-0.5-0.4-0.9-0.6-1C39.2,78.3,39.9,78.2,40.3,78z"/>
	<path class="st14" d="M36.7,86.4c-0.1-0.3-0.1-0.6-0.1-0.8c-0.5-2.9-0.5-4.9,0.5-6.8c0.2-0.3,1-0.1,1.6-0.3
		c1.7,0.6-0.1,5.5-1.4,7.4C37,86,36.8,86.5,36.7,86.4z"/>
	<path class="st14" d="M36.8,79c-0.2,0.4-0.6,2.1-0.6,2.7c-0.1,0.5-0.6,1.3-1.2,1.9c-0.1,0.1-0.3,0.5-0.4,0.4
		c-0.6-0.8,0-2.7,0.2-3.1C35.3,80.5,36.4,79.6,36.8,79z"/>
	<path class="st14" d="M48.7,83.8c-1.6-1.9,3.1-4.7,3.6-5.2c0,1.3-0.2,3.3-0.7,4C50.9,83.4,49.9,82.8,48.7,83.8z"/>
	<path class="st14" d="M55.8,78.9c0.3,0.2,0.5,0.9,0.8,1c1,0.5-0.7,2.1-0.6,2.4c0.2,0.3,0.8,0.1,1,0.3c0.2,0.2,0,1-0.6,1.9
		c0.1-0.8-0.3-0.7-0.2-1.2c0.1-0.3-0.2-0.5-0.4-0.4c-0.8,0.2-0.7,0.1-0.6-0.1c0.1-0.2,0-0.7-0.5-0.5c0.1-0.5-0.5-1.1-1.1-1.1
		c-0.1,0,0.1,0.6-0.3,0.9c-0.1,0.1-1,0.3-1,0.1c0.1-1.1,0.2-1.8,0.2-2.4c0.1-0.1,0.6-0.3,0.9-0.7c0.1-0.2,0.4-0.2,0.9-0.4
		c0.1,0.2,0.4,0.2,0.5,0.5C55.1,78.8,55.6,78.7,55.8,78.9z"/>
	<path class="st14" d="M53.7,81.2c0.1,0,1.1,0.2,0.9,1.1c0.5-0.2,0.9,0.2,0.3,0.8c-0.1,0.1-0.9,0.7-1.3,0.8c0.3-0.3,0.1-0.3,1-1.1
		c-0.9,0.7-1.2,0.7-1.7,1c-0.8,0.5,0.5-0.6,1.1-1.6c-0.5,0.5-0.7,0.5-1.1,0.9C53,82.5,53.9,81.8,53.7,81.2z"/>
	<path class="st14" d="M61.2,82.4c0,0.3-1.6-0.5-4.3,1.7c0.2-0.5,0.8-1.5,0.1-1.7c-0.1,0-0.5,0-0.7-0.1c-0.1-0.2,0.2-0.5,0.3-0.8
		C58.4,80.5,61.2,81.1,61.2,82.4z"/>
	<path class="st14" d="M52.5,82.7c0,0.7-0.3,1.2-0.2,1.7c0.1,1-0.4,2.8-1.7,2.2c-1.1-0.6-1.8-1.5-1.8-2.7c0.6-0.8,1.7-0.7,2.2-0.8
		C51.6,83,51.7,82.6,52.5,82.7z"/>
	<path class="st14" d="M48.4,84c0.2,0.1,0.5,1.3,0.4,1.6c-1.5,2.1-5,0.5-7.2,1.1c-1.1,0.3-1.5-0.1-1-0.6C42.5,84.6,46,82.6,48.4,84z
		"/>
	<path class="st14" d="M56.1,82.9c0.3,0.5-0.5,1.5-1.3,1.7c-0.9,0.3-1.8,0.4-2.5,1.4c0.1-0.5,0.1-0.6,0.2-1
		C52.5,84.5,55.9,82.6,56.1,82.9z"/>
	<path class="st14" d="M55.8,84.1c0.3,1-0.9,1.7-1.4,2.1c-0.5,0.3-2,0.6-2.5,0.4c0.1-0.1,0.2-0.3,0.2-0.3
		C53.4,84.5,54.8,85.2,55.8,84.1z"/>
	<path class="st14" d="M56.5,84.7c2.5,1.2,4,4.1,3.3,6.8c-0.1,0.5-0.9,0.6-0.9-0.4c-0.5-2.5-2.8-2.8-4.1-4.5
		C55.2,86.1,56.1,85.5,56.5,84.7z"/>
	<path class="st14" d="M48.6,86.2c0.7-0.3,1.4,0.3,1.6,0.6c1.3,2.4-2.1,4.4-3.7,5.7c-1.3,1.1-1.5,0-1-0.6
		C46.8,89.9,46.1,87.5,48.6,86.2z"/>
	<path class="st14" d="M50.6,94.5c-0.1-2,0.1-3.8,0.2-5.7c0-1.2,0.9-1.6,1.9-2c0.5-0.2,0.9-0.1,1,0.3c0.9,2.5-0.6,5.8-2.8,7.5
		C50.5,94.9,50.6,94.8,50.6,94.5z"/>
	<path class="st14" d="M56.2,88.1c-0.1,0.8,0.3,3,0.1,3.7c-0.3,0.9-0.9,0.4-1-0.1c-0.2-0.9-1.1-1.9-1.3-2.9c0-0.5,0-0.6-0.1-1.2
		c-0.2-1.1,0.5-0.9,1-0.4C55.2,87.5,55.8,87.8,56.2,88.1z"/>
	<path class="st8" d="M34.8,75.6c0-0.5-0.4-1.1-0.8-1.3c-0.2-0.4,0.7-1.3,1.3-1.5c0,0.2,0.2,0.4,0.3,0.5c0.4-1.2,1.8-1.4,2.3-1.9
		c0,0.4,0.6,0.6,0.7,1.2c-0.5,1-0.8,1.9-0.8,2.6c0,0.2-0.2,0.3-0.4,0.3c-0.4-0.7-0.8-1.4-0.9-2.4C36.2,73.7,35.1,74.5,34.8,75.6z"/>
	<path class="st9" d="M34.8,75.6c0-0.5-0.4-1.1-0.8-1.3c-0.2-0.4,0.7-1.3,1.3-1.5c0,0.2,0.2,0.4,0.3,0.5c0.4-1.2,1.8-1.4,2.3-1.9
		c0,0.4,0.6,0.6,0.7,1.2c-0.5,1-0.8,1.9-0.8,2.6c0,0.2-0.2,0.3-0.4,0.3c-0.4-0.7-0.8-1.4-0.9-2.4C36.2,73.7,35.1,74.5,34.8,75.6z"/>
	<path class="st8" d="M38.2,78.2c0-0.4-0.2-1-0.3-1.4c-0.3-1.6,0.6-4.4,1.4-5c0,0.2,0.1,0.4,0.1,0.6c0.1,0.3,0.2,0.6,0.4,1.2
		C40,74.4,39.9,77.4,38.2,78.2z"/>
	<path class="st9" d="M38.2,78.2c0-0.4-0.2-1-0.3-1.4c-0.3-1.6,0.6-4.4,1.4-5c0,0.2,0.1,0.4,0.1,0.6c0.1,0.3,0.2,0.6,0.4,1.2
		C40,74.4,39.9,77.4,38.2,78.2z"/>
	<path class="st8" d="M33.1,73.7c0.1,0.1,0.2,0.2,0.3,0.3c0.7,0.7,1.4,0.9,1.3,1.7c0,0.4-0.3,0.9-0.2,1.1
		C33.8,76.5,33.1,74.9,33.1,73.7z"/>
	<path class="st9" d="M33.1,73.7c0.1,0.1,0.2,0.2,0.3,0.3c0.7,0.7,1.4,0.9,1.3,1.7c0,0.4-0.3,0.9-0.2,1.1
		C33.8,76.5,33.1,74.9,33.1,73.7z"/>
	<path class="st8" d="M38.1,78.3c-1.1,0.6-2.8-0.1-3.4-1.3c-0.2-0.3,0-1,0.6-2c0.3-0.6,1.1-1.2,1.3-1.7
		C36.5,74.7,38.4,77.3,38.1,78.3z"/>
	<path class="st9" d="M38.1,78.3c-1.1,0.6-2.8-0.1-3.4-1.3c-0.2-0.3,0-1,0.6-2c0.3-0.6,1.1-1.2,1.3-1.7
		C36.5,74.7,38.4,77.3,38.1,78.3z"/>
	<path class="st7" d="M43,74.1c0.4-0.1,0.8-0.2,0.8,0c0.1,0.4-0.4,0.4-0.8,1c-0.7,1.2-2,2.8-4.2,3.1c0.3-0.3,0.8-1.2,1-1.8
		C41.1,75,42.4,74.3,43,74.1"/>
	<path class="st7" d="M34.6,77.2c0.2,0.4,0.6,0.8,1.1,1.1c-0.3,0-1.6,0-2.5,0.5c-0.8-0.4-3.4,0.1-4.2-1.1c0.6-0.1,1.5-0.9,3.3-0.9
		C32.7,76.8,34.3,76.8,34.6,77.2"/>
	<path class="st7" d="M52.1,75.1c-0.1,0.5,1.6,2.3,1.1,3.6c-0.2,0.2-0.5,0.5-0.7,0.6c0-0.3,0-0.8,0-1c-0.6,0.5-2.7,1.9-3.2,2.6
		c-0.3-3.1,1.7-5.1,1.9-5.6C51.5,74.6,52.2,74.3,52.1,75.1"/>
	<path class="st7" d="M45.7,76.5c0.4,1.9,3.8,3.1,3.3,4.7c-0.6,0.7-1,1.6-0.7,2.3c-2.7-1-3.2-5.2-3.3-5.8
		C45,76.6,45.6,76.3,45.7,76.5"/>
	<path class="st7" d="M35.8,78.4c0.3,0.1,0.8,0.2,1.1,0.3c-0.6,1.3-2.3,1.4-3.2,3c-1.8,2.9-2.1,2.5-2.4,2.7
		C30.7,82.1,31.7,78.4,35.8,78.4"/>
	<path class="st7" d="M40.3,78c2.5-0.3,4.9,2.9,4.3,5.3c-2-0.5-3-3.5-5.1-4c0-0.5-0.4-0.9-0.6-1C39.3,78.3,39.9,78.2,40.3,78"/>
	<path class="st7" d="M36.7,86.2c-0.7-3.3-0.4-5.4,0.4-7.6c0.4,0,1-0.1,1.6-0.3C40.6,79,38,85.3,36.7,86.2"/>
	<path class="st7" d="M36.8,78.9c-0.2,0.4-0.6,2.1-0.6,2.7c-0.1,0.6-0.9,1.8-1.6,2.3c-0.4-0.9,0-2.7,0.2-3.1
		C35.3,80.4,36.4,79.6,36.8,78.9"/>
	<path class="st8" d="M48.8,83.7c-1.6-1.9,3.1-4.7,3.6-5.2c0,1.3-0.2,3.3-0.7,4C51,83.3,49.9,82.7,48.8,83.7z"/>
	<path class="st9" d="M48.8,83.7c-1.6-1.9,3.1-4.7,3.6-5.2c0,1.3-0.2,3.3-0.7,4C51,83.3,49.9,82.7,48.8,83.7z"/>
	<path class="st8" d="M55.9,78.8c0.3,0.2,0.5,1.5,0.8,1c0.3,1.1-0.7,2.1-0.6,2.4c0.2,0.3,0.8,0.1,1,0.3c0.2,0.2,0,1-0.6,1.9
		c0.1-0.8-0.3-0.7-0.2-1.2c0.1-0.3-0.2-0.5-0.4-0.4c-0.8,0.2-0.7,0.1-0.6-0.1c0.1-0.2,0-0.7-0.5-0.5c0.1-0.5-0.5-1.1-1.1-1.1
		c-0.1,0,0.1,0.6-0.3,0.9c-0.1,0.1-1,0.3-1,0.1c0.1-1.1,0.2-1.8,0.2-2.4c0.1-0.1,0.6-0.3,0.9-0.7c0.1-0.2,0.4-0.2,0.9-0.4
		c0.1,0.2,0.4,0.2,0.5,0.5C55.1,78.7,55.6,78.6,55.9,78.8z"/>
	<path class="st9" d="M55.9,78.8c0.3,0.2,0.5,1.5,0.8,1c0.3,1.1-0.7,2.1-0.6,2.4c0.2,0.3,0.8,0.1,1,0.3c0.2,0.2,0,1-0.6,1.9
		c0.1-0.8-0.3-0.7-0.2-1.2c0.1-0.3-0.2-0.5-0.4-0.4c-0.8,0.2-0.7,0.1-0.6-0.1c0.1-0.2,0-0.7-0.5-0.5c0.1-0.5-0.5-1.1-1.1-1.1
		c-0.1,0,0.1,0.6-0.3,0.9c-0.1,0.1-1,0.3-1,0.1c0.1-1.1,0.2-1.8,0.2-2.4c0.1-0.1,0.6-0.3,0.9-0.7c0.1-0.2,0.4-0.2,0.9-0.4
		c0.1,0.2,0.4,0.2,0.5,0.5C55.1,78.7,55.6,78.6,55.9,78.8z"/>
	<path class="st7" d="M61.2,82.3c0,0.3-1.6-0.5-4.3,1.7c0.2-0.5,0.9-1.5,0.1-1.7c-0.1,0-0.5,0-0.7-0.1c-0.1-0.2,0.2-0.5,0.3-0.8
		C58.4,80.4,61.2,81,61.2,82.3"/>
	<path class="st8" d="M52.5,82.6c0,0.7-0.3,1.2-0.2,1.7c0.1,1-0.4,2.8-1.7,2.2c-1.1-0.6-1.8-1.5-1.8-2.7c0.6-0.8,1.7-0.7,2.2-0.8
		C51.6,82.9,51.7,82.5,52.5,82.6z"/>
	<path class="st9" d="M52.5,82.6c0,0.7-0.3,1.2-0.2,1.7c0.1,1-0.4,2.8-1.7,2.2c-1.1-0.6-1.8-1.5-1.8-2.7c0.6-0.8,1.7-0.7,2.2-0.8
		C51.6,82.9,51.7,82.5,52.5,82.6z"/>
	<path class="st7" d="M48.4,83.9c0.2,0.1,0.5,1.3,0.4,1.6c-1.5,2.1-5,0.5-7.2,1.1c-1.1,0.3-1.5-0.1-1-0.6
		C42.5,84.5,46,82.6,48.4,83.9"/>
	<path class="st8" d="M56.1,82.9c0.3,0.5-0.5,1.5-1.3,1.7c-0.9,0.3-1.8,0.4-2.5,1.4c0.1-0.5,0.1-0.6,0.2-1
		C52.5,84.5,55.9,82.6,56.1,82.9z"/>
	<path class="st9" d="M56.1,82.9c0.3,0.5-0.5,1.5-1.3,1.7c-0.9,0.3-1.8,0.4-2.5,1.4c0.1-0.5,0.1-0.6,0.2-1
		C52.5,84.5,55.9,82.6,56.1,82.9z"/>
	<path class="st8" d="M55.8,84c0.3,1-0.9,1.7-1.4,2.1c-0.5,0.3-2,0.6-2.5,0.4c0.1-0.1,0.2-0.3,0.2-0.3C53.4,84.5,54.8,85.1,55.8,84z
		"/>
	<path class="st9" d="M55.8,84c0.3,1-0.9,1.7-1.4,2.1c-0.5,0.3-2,0.6-2.5,0.4c0.1-0.1,0.2-0.3,0.2-0.3C53.4,84.5,54.8,85.1,55.8,84z
		"/>
	<path class="st7" d="M56.5,84.7c2.5,1.2,4,4.1,3.3,6.8c-0.1,0.5-0.9,0.6-0.9-0.4c-0.5-2.5-2.8-2.8-4.1-4.5
		C55.2,86,56.1,85.5,56.5,84.7"/>
	<path class="st7" d="M48.6,86.1c0.7-0.3,1.4,0.3,1.6,0.6c1.3,2.4-2.1,4.4-3.7,5.7c-1.3,1.1-1.5,0-1-0.6
		C46.8,89.8,46.1,87.5,48.6,86.1"/>
	<path class="st7" d="M56.3,88c-0.1,0.8,0.3,3,0.1,3.7c-0.3,0.9-0.9,0.4-1-0.1c-0.2-0.9-1.1-1.9-1.3-2.9c0-0.5,0-0.6-0.1-1.2
		c-0.2-1.1,0.5-0.9,1-0.4C55.3,87.4,55.8,87.7,56.3,88"/>
	<path class="st7" d="M50.6,94.7c-0.1-2.1,0.1-4,0.1-6c0-1.2,0.9-1.6,1.9-2c0.5-0.2,0.9-0.1,1,0.3C54.6,89.6,52.9,93.1,50.6,94.7"/>
	<path class="st11" d="M45.6,69.3c0-0.2-0.2-0.3-0.3-0.4c-0.1-0.1,0.2-0.5,0.3-0.6c0,0.1,0.1,0.1,0.1,0.1c0.1-0.3,0.3-0.5,0.5-0.6
		c0.1-0.1,0.2-0.2,0.2-0.2c0.1,0.1,0.2,0.2,0.3,0.4c-0.1,0.3-0.1,0.7-0.1,0.9c0,0.1-0.1,0.1-0.1,0.1c-0.2-0.2-0.3-0.4-0.4-0.8
		C46,68.6,45.6,68.9,45.6,69.3"/>
	<path class="st11" d="M46.9,70c0-0.1-0.1-0.3-0.2-0.4c-0.2-0.5-0.1-1.2,0.1-1.6c0-0.1,0.1-0.2,0.1-0.1c0.1,0.1,0.1,0.2,0.3,0.6
		C47.3,68.6,47.4,69.6,46.9,70"/>
	<path class="st11" d="M44.9,68.8c0.4,0.2,0.6,0.3,0.7,0.6c0,0.2-0.1,0.3,0,0.4c-0.2-0.1-0.4-0.4-0.6-0.7C45,69,44.8,68.7,44.9,68.8
		"/>
	<path class="st11" d="M46.9,70c-0.3,0.3-0.9,0.1-1.2-0.2c-0.1-0.1-0.1-0.3,0.1-0.7c0.1-0.2,0.3-0.5,0.3-0.7
		C46.1,68.9,46.9,69.6,46.9,70"/>
	<path class="st11" d="M48.2,68.3c0.1-0.1,0.2-0.1,0.3-0.1c0.1,0.1-0.1,0.1-0.2,0.4c-0.2,0.4-0.5,1-1.2,1.3c0.1-0.1,0.2-0.4,0.2-0.7
		C47.7,68.7,48.1,68.4,48.2,68.3"/>
	<path class="st11" d="M45.6,69.8c0.1,0.1,0.2,0.2,0.4,0.3c-0.1,0-0.5,0.1-0.8,0.3c-0.2-0.1-0.7,0.1-1.1,0c-0.2,0-0.5,0-0.4-0.2
		c0.1-0.2,0.5-0.4,1-0.5C45,69.8,45.5,69.7,45.6,69.8"/>
	<path class="st11" d="M46.1,70.1c0.1,0,0.3,0,0.4,0c-0.1,0.5-0.7,0.6-0.9,1.2c-0.2,0.5-0.3,0.8-0.4,0.9c-0.1,0.1-0.2,0.2-0.2,0.1
		C44.6,71.7,44.8,70.4,46.1,70.1"/>
	<path class="st11" d="M47.6,69.7c0.8-0.3,1.8,0.7,1.8,1.5c-0.7,0-1.2-1-1.9-1c0-0.2-0.2-0.3-0.3-0.3C47.3,69.9,47.5,69.8,47.6,69.7
		"/>
	<path class="st11" d="M46.9,72.7c0-0.1-0.1-0.2-0.1-0.3c-0.3-0.9-0.5-1.6-0.3-2.3c0-0.1,0.3-0.1,0.5-0.2c0.6,0.1,0.3,1.9,0,2.5
		C47,72.6,47,72.8,46.9,72.7"/>
	<path class="st11" d="M46.5,70.3c0,0.2-0.1,0.7,0,0.9c0,0.2-0.1,0.5-0.3,0.7c0,0.1-0.1,0.2-0.1,0.1c-0.2-0.2-0.2-0.9-0.1-1
		C46.1,70.9,46.4,70.5,46.5,70.3"/>
	<path class="st11" d="M45.6,69.3c0-0.2-0.2-0.3-0.3-0.4c-0.1-0.1,0.2-0.5,0.3-0.6c0,0.1,0.1,0.1,0.1,0.1c0.1-0.4,0.5-0.6,0.7-0.8
		c0,0.1,0.2,0.2,0.3,0.4c-0.1,0.3-0.1,0.7-0.1,0.9c0,0.1-0.1,0.1-0.1,0.1c-0.2-0.2-0.3-0.4-0.4-0.8C46,68.6,45.6,68.9,45.6,69.3"/>
	<path class="st11" d="M46.9,70c0-0.1-0.1-0.3-0.2-0.4c-0.2-0.5-0.1-1.5,0.2-1.7c0,0.1,0,0.1,0.1,0.2c0.1,0.1,0.1,0.2,0.2,0.4
		C47.3,68.6,47.4,69.6,46.9,70"/>
	<path class="st11" d="M44.9,68.8c0,0,0.1,0.1,0.1,0.1c0.3,0.2,0.5,0.2,0.5,0.5c0,0.2-0.1,0.3,0,0.4C45.4,69.6,45,69.2,44.9,68.8"/>
	<path class="st11" d="M46.9,70c-0.3,0.3-0.9,0.1-1.2-0.2c-0.1-0.1-0.1-0.3,0.1-0.7c0.1-0.2,0.3-0.5,0.3-0.7
		C46.1,68.9,46.9,69.6,46.9,70"/>
	<path class="st11" d="M48.2,68.3c0.1-0.1,0.2-0.1,0.3-0.1c0.1,0.1-0.1,0.1-0.2,0.4c-0.2,0.4-0.5,1-1.2,1.3c0.1-0.1,0.2-0.4,0.2-0.7
		C47.7,68.7,48.1,68.4,48.2,68.3"/>
	<path class="st11" d="M45.6,69.8c0.1,0.1,0.2,0.2,0.4,0.3c-0.1,0-0.5,0.1-0.8,0.3c-0.3-0.1-1.1,0.2-1.5-0.1c0.2-0.1,0.5-0.4,1-0.5
		C45,69.8,45.5,69.7,45.6,69.8"/>
	<path class="st11" d="M46.1,70.1c0.1,0,0.3,0,0.4,0c-0.1,0.5-0.7,0.6-0.9,1.2c-0.4,1.1-0.5,1-0.6,1C44.7,71.7,44.8,70.4,46.1,70.1"
		/>
	<path class="st11" d="M47.6,69.7c0.8-0.3,1.8,0.7,1.8,1.5c-0.7,0-1.2-1-1.9-1c0-0.2-0.2-0.3-0.3-0.3C47.3,69.9,47.5,69.8,47.6,69.7
		"/>
	<path class="st11" d="M46.9,72.7c-0.4-1.1-0.5-1.8-0.4-2.5c0.1,0,0.3-0.1,0.5-0.2C47.8,70.1,47.3,72.3,46.9,72.7"/>
	<path class="st11" d="M46.5,70.3c0,0.2-0.1,0.7,0,0.9c0,0.2-0.2,0.6-0.4,0.9c-0.2-0.3-0.2-0.9-0.1-1C46.1,70.9,46.4,70.5,46.5,70.3
		"/>
	<path class="st11" d="M33.9,87.3c0-0.2-0.2-0.3-0.3-0.4c-0.1-0.1,0.2-0.5,0.3-0.6c0,0.1,0.1,0.1,0.1,0.1c0.1-0.3,0.3-0.5,0.5-0.6
		c0.1-0.1,0.2-0.2,0.2-0.2c0.1,0.1,0.2,0.2,0.3,0.4c-0.1,0.3-0.1,0.7-0.1,0.9c0,0.1-0.1,0.1-0.1,0.1c-0.2-0.2-0.3-0.4-0.4-0.8
		C34.3,86.6,34,86.9,33.9,87.3"/>
	<path class="st11" d="M35.3,87.9c0-0.1-0.1-0.3-0.2-0.4c-0.2-0.5-0.1-1.2,0.1-1.6c0-0.1,0.1-0.2,0.1-0.1c0.1,0.1,0.1,0.2,0.3,0.6
		C35.6,86.6,35.7,87.6,35.3,87.9"/>
	<path class="st11" d="M33.3,86.7c0.4,0.2,0.6,0.3,0.7,0.6c0,0.2-0.1,0.3,0,0.4c-0.2-0.1-0.4-0.4-0.6-0.7
		C33.3,86.9,33.2,86.7,33.3,86.7"/>
	<path class="st11" d="M35.2,88c-0.3,0.3-0.9,0.1-1.2-0.2c-0.1-0.1-0.1-0.3,0.1-0.7c0.1-0.2,0.3-0.5,0.3-0.7
		C34.4,86.9,35.2,87.6,35.2,88"/>
	<path class="st11" d="M36.6,86.3c0.1-0.1,0.2-0.1,0.3-0.1c0.1,0.1-0.1,0.1-0.2,0.4c-0.2,0.4-0.5,1-1.2,1.3c0.1-0.1,0.2-0.4,0.2-0.7
		C36,86.7,36.4,86.4,36.6,86.3"/>
	<path class="st11" d="M34,87.8c0.1,0.1,0.2,0.2,0.4,0.3c-0.1,0-0.5,0.1-0.8,0.3c-0.2-0.1-0.7,0.1-1.1,0c-0.2,0-0.5,0-0.4-0.2
		c0.1-0.2,0.5-0.4,1-0.5C33.3,87.8,33.8,87.7,34,87.8"/>
	<path class="st11" d="M34.4,88.1c0.1,0,0.3,0,0.4,0c-0.1,0.5-0.7,0.6-0.9,1.2c-0.2,0.5-0.3,0.8-0.4,0.9c-0.1,0.1-0.2,0.2-0.2,0.1
		C32.9,89.7,33.1,88.4,34.4,88.1"/>
	<path class="st11" d="M35.9,87.7c0.8-0.3,1.8,0.7,1.8,1.5c-0.7,0-1.2-1-1.9-1c0-0.2-0.2-0.3-0.3-0.3C35.6,87.9,35.8,87.8,35.9,87.7
		"/>
	<path class="st11" d="M35.3,90.7c0-0.1-0.1-0.2-0.1-0.3c-0.3-0.9-0.5-1.6-0.3-2.3c0-0.1,0.3-0.1,0.5-0.2c0.6,0.1,0.3,1.9,0,2.5
		C35.3,90.6,35.3,90.8,35.3,90.7"/>
	<path class="st11" d="M34.8,88.3c0,0.2-0.1,0.7,0,0.9c0,0.2-0.1,0.5-0.3,0.7c0,0.1-0.1,0.2-0.1,0.1c-0.2-0.2-0.2-0.9-0.1-1
		C34.4,88.8,34.7,88.5,34.8,88.3"/>
	<path class="st11" d="M33.9,87.3c0-0.2-0.2-0.3-0.3-0.4c-0.1-0.1,0.2-0.5,0.3-0.6c0,0.1,0.1,0.1,0.1,0.1c0.1-0.4,0.5-0.6,0.7-0.8
		c0,0.1,0.2,0.2,0.3,0.4c-0.1,0.3-0.1,0.7-0.1,0.9c0,0.1-0.1,0.1-0.1,0.1c-0.2-0.2-0.3-0.4-0.4-0.8C34.3,86.6,34,86.9,33.9,87.3"/>
	<path class="st11" d="M35.3,87.9c0-0.1-0.1-0.3-0.2-0.4C34.9,87,35,86,35.3,85.8c0,0.1,0,0.1,0.1,0.2c0.1,0.1,0.1,0.2,0.2,0.4
		C35.6,86.6,35.7,87.6,35.3,87.9"/>
	<path class="st11" d="M33.3,86.7c0,0,0.1,0.1,0.1,0.1c0.3,0.2,0.5,0.2,0.5,0.5c0,0.2-0.1,0.3,0,0.4C33.7,87.6,33.3,87.1,33.3,86.7"
		/>
	<path class="st11" d="M35.2,88c-0.3,0.3-0.9,0.1-1.2-0.2c-0.1-0.1-0.1-0.3,0.1-0.7c0.1-0.2,0.3-0.5,0.3-0.7
		C34.4,86.9,35.2,87.6,35.2,88"/>
	<path class="st11" d="M36.6,86.3c0.1-0.1,0.2-0.1,0.3-0.1c0.1,0.1-0.1,0.1-0.2,0.4c-0.2,0.4-0.5,1-1.2,1.3c0.1-0.1,0.2-0.4,0.2-0.7
		C36,86.7,36.4,86.4,36.6,86.3"/>
	<path class="st11" d="M34,87.8c0.1,0.1,0.2,0.2,0.4,0.3c-0.1,0-0.5,0.1-0.8,0.3c-0.3-0.1-1.1,0.2-1.5-0.1c0.2-0.1,0.5-0.4,1-0.5
		C33.3,87.8,33.8,87.7,34,87.8"/>
	<path class="st11" d="M34.4,88.1c0.1,0,0.3,0,0.4,0c-0.1,0.5-0.7,0.6-0.9,1.2c-0.4,1.1-0.5,1-0.6,1C33,89.7,33.1,88.4,34.4,88.1"/>
	<path class="st11" d="M35.9,87.7c0.8-0.3,1.8,0.7,1.8,1.5c-0.7,0-1.2-1-1.9-1c0-0.2-0.2-0.3-0.3-0.3C35.6,87.9,35.8,87.8,35.9,87.7
		"/>
	<path class="st11" d="M35.3,90.7c-0.4-1.1-0.5-1.8-0.4-2.5c0.1,0,0.3-0.1,0.5-0.2C36.1,88,35.6,90.3,35.3,90.7"/>
	<path class="st11" d="M34.8,88.3c0,0.2-0.1,0.7,0,0.9c0,0.2-0.2,0.6-0.4,0.9c-0.2-0.3-0.2-0.9-0.1-1C34.4,88.8,34.7,88.5,34.8,88.3
		"/>
	<path class="st11" d="M58.9,71.2c0-0.2,0.2-0.3,0.3-0.4c0.1-0.1-0.2-0.5-0.3-0.6c0,0.1-0.1,0.1-0.1,0.1c-0.1-0.3-0.3-0.5-0.5-0.6
		c-0.1-0.1-0.2-0.2-0.2-0.2c-0.1,0.1-0.2,0.2-0.3,0.4c0.1,0.3,0.1,0.7,0.1,0.9c0,0.1,0.1,0.1,0.1,0.1c0.2-0.2,0.3-0.4,0.4-0.8
		C58.6,70.4,58.9,70.8,58.9,71.2"/>
	<path class="st11" d="M57.6,71.8c0-0.1,0.1-0.3,0.2-0.4c0.2-0.5,0.1-1.2-0.1-1.6c0-0.1-0.1-0.2-0.1-0.1c-0.1,0.1-0.1,0.2-0.3,0.6
		C57.3,70.4,57.1,71.4,57.6,71.8"/>
	<path class="st11" d="M59.6,70.6c-0.4,0.2-0.6,0.3-0.7,0.6c0,0.2,0.1,0.3,0,0.4c0.2-0.1,0.4-0.4,0.6-0.7
		C59.6,70.8,59.7,70.6,59.6,70.6"/>
	<path class="st11" d="M57.7,71.8c0.3,0.3,0.9,0.1,1.2-0.2c0.1-0.1,0.1-0.3-0.1-0.7c-0.1-0.2-0.3-0.5-0.3-0.7
		C58.4,70.7,57.6,71.5,57.7,71.8"/>
	<path class="st11" d="M56.3,70.2c-0.1-0.1-0.2-0.1-0.3-0.1c-0.1,0.1,0.1,0.1,0.2,0.4c0.2,0.4,0.5,1,1.2,1.3
		c-0.1-0.1-0.2-0.4-0.2-0.7C56.9,70.6,56.5,70.2,56.3,70.2"/>
	<path class="st11" d="M58.9,71.7c-0.1,0.1-0.2,0.2-0.4,0.3c0.1,0,0.5,0.1,0.8,0.3c0.2-0.1,0.7,0.1,1.1,0c0.2,0,0.5,0,0.4-0.2
		c-0.1-0.2-0.5-0.4-1-0.5C59.6,71.7,59,71.6,58.9,71.7"/>
	<path class="st11" d="M58.4,72c-0.1,0-0.3,0-0.4,0c0.1,0.5,0.7,0.6,0.9,1.2c0.2,0.5,0.3,0.8,0.4,0.9c0.1,0.1,0.2,0.2,0.2,0.1
		C59.9,73.6,59.8,72.3,58.4,72"/>
	<path class="st11" d="M57,71.6c-0.8-0.3-1.8,0.7-1.8,1.5c0.7,0,1.2-1,1.9-1c0-0.2,0.2-0.3,0.3-0.3C57.3,71.8,57.1,71.7,57,71.6"/>
	<path class="st11" d="M57.6,74.6c0-0.1,0.1-0.2,0.1-0.3c0.3-0.9,0.5-1.6,0.3-2.3c0-0.1-0.3-0.1-0.5-0.2c-0.6,0.1-0.3,1.9,0,2.5
		C57.5,74.4,57.6,74.6,57.6,74.6"/>
	<path class="st11" d="M58.1,72.1c0,0.2,0.1,0.7,0,0.9c0,0.2,0.1,0.5,0.3,0.7c0,0.1,0.1,0.2,0.1,0.1c0.2-0.2,0.2-0.9,0.1-1
		C58.5,72.7,58.1,72.4,58.1,72.1"/>
	<path class="st11" d="M58.9,71.2c0-0.2,0.2-0.3,0.3-0.4c0.1-0.1-0.2-0.5-0.3-0.6c0,0.1-0.1,0.1-0.1,0.1c-0.1-0.4-0.5-0.6-0.7-0.8
		c0,0.1-0.2,0.2-0.3,0.4c0.1,0.3,0.1,0.7,0.1,0.9c0,0.1,0.1,0.1,0.1,0.1c0.2-0.2,0.3-0.4,0.4-0.8C58.6,70.4,58.9,70.8,58.9,71.2"/>
	<path class="st11" d="M57.6,71.8c0-0.1,0.1-0.3,0.2-0.4c0.2-0.5,0.1-1.5-0.2-1.7c0,0.1,0,0.1-0.1,0.2c-0.1,0.1-0.1,0.2-0.2,0.4
		C57.3,70.4,57.1,71.4,57.6,71.8"/>
	<path class="st11" d="M59.6,70.6c0,0-0.1,0.1-0.1,0.1c-0.3,0.2-0.5,0.2-0.5,0.5c0,0.2,0.1,0.3,0,0.4C59.2,71.5,59.5,71,59.6,70.6"
		/>
	<path class="st11" d="M57.7,71.8c0.3,0.3,0.9,0.1,1.2-0.2c0.1-0.1,0.1-0.3-0.1-0.7c-0.1-0.2-0.3-0.5-0.3-0.7
		C58.4,70.7,57.6,71.5,57.7,71.8"/>
	<path class="st11" d="M56.3,70.2c-0.1-0.1-0.2-0.1-0.3-0.1c-0.1,0.1,0.1,0.1,0.2,0.4c0.2,0.4,0.5,1,1.2,1.3
		c-0.1-0.1-0.2-0.4-0.2-0.7C56.9,70.6,56.5,70.2,56.3,70.2"/>
	<path class="st11" d="M58.9,71.7c-0.1,0.1-0.2,0.2-0.4,0.3c0.1,0,0.5,0.1,0.8,0.3c0.3-0.1,1.1,0.2,1.5-0.1c-0.2-0.1-0.5-0.4-1-0.5
		C59.6,71.7,59,71.6,58.9,71.7"/>
	<path class="st11" d="M58.4,72c-0.1,0-0.3,0-0.4,0c0.1,0.5,0.7,0.6,0.9,1.2c0.4,1.1,0.5,1,0.6,1C59.9,73.6,59.8,72.3,58.4,72"/>
	<path class="st11" d="M57,71.6c-0.8-0.3-1.8,0.7-1.8,1.5c0.7,0,1.2-1,1.9-1c0-0.2,0.2-0.3,0.3-0.3C57.3,71.8,57.1,71.7,57,71.6"/>
	<path class="st11" d="M57.6,74.6c0.4-1.1,0.5-1.8,0.4-2.5c-0.1,0-0.3-0.1-0.5-0.2C56.8,71.9,57.3,74.2,57.6,74.6"/>
	<path class="st11" d="M58.1,72.1c0,0.2,0.1,0.7,0,0.9c0,0.2,0.2,0.6,0.4,0.9c0.2-0.3,0.2-0.9,0.1-1C58.5,72.7,58.1,72.4,58.1,72.1"
		/>
	<path class="st11" d="M44.4,55.3c0-0.2,0.2-0.3,0.3-0.4c0.1-0.1-0.2-0.5-0.3-0.6c0,0.1-0.1,0.1-0.1,0.1c-0.1-0.3-0.3-0.5-0.5-0.6
		c-0.1-0.1-0.2-0.2-0.2-0.2c-0.1,0.1-0.2,0.2-0.3,0.4c0.1,0.3,0.1,0.7,0.1,0.9c0,0.1,0.1,0.1,0.1,0.1c0.2-0.2,0.3-0.4,0.4-0.8
		C44.1,54.6,44.4,54.9,44.4,55.3"/>
	<path class="st11" d="M43.1,56c0-0.1,0.1-0.3,0.2-0.4c0.2-0.5,0.1-1.2-0.1-1.6c0-0.1-0.1-0.2-0.1-0.1C43,54,43,54.1,42.8,54.4
		C42.8,54.6,42.6,55.6,43.1,56"/>
	<path class="st11" d="M45.1,54.8c-0.4,0.2-0.6,0.3-0.7,0.6c0,0.2,0.1,0.3,0,0.4c0.2-0.1,0.4-0.4,0.6-0.7C45,55,45.2,54.7,45.1,54.8
		"/>
	<path class="st11" d="M43.2,56c0.3,0.3,0.9,0.1,1.2-0.2c0.1-0.1,0.1-0.3-0.1-0.7c-0.1-0.2-0.3-0.5-0.3-0.7
		C43.9,54.9,43.1,55.7,43.2,56"/>
	<path class="st11" d="M41.8,54.3c-0.1-0.1-0.2-0.1-0.3-0.1c-0.1,0.1,0.1,0.1,0.2,0.4c0.2,0.4,0.5,1,1.2,1.3
		c-0.1-0.1-0.2-0.4-0.2-0.7C42.4,54.7,42,54.4,41.8,54.3"/>
	<path class="st11" d="M44.4,55.9c-0.1,0.1-0.2,0.2-0.4,0.3c0.1,0,0.5,0.1,0.8,0.3c0.2-0.1,0.7,0.1,1.1,0c0.2,0,0.5,0,0.4-0.2
		c-0.1-0.2-0.5-0.4-1-0.5C45,55.9,44.5,55.8,44.4,55.9"/>
	<path class="st11" d="M43.9,56.2c-0.1,0-0.3,0-0.4,0c0.1,0.5,0.7,0.6,0.9,1.2c0.2,0.5,0.3,0.8,0.4,0.9c0.1,0.1,0.2,0.2,0.2,0.1
		C45.4,57.8,45.3,56.5,43.9,56.2"/>
	<path class="st11" d="M42.4,55.8c-0.8-0.3-1.8,0.7-1.8,1.5c0.7,0,1.2-1,1.9-1c0-0.2,0.2-0.3,0.3-0.3C42.8,55.9,42.6,55.9,42.4,55.8
		"/>
	<path class="st11" d="M43.1,58.8c0-0.1,0.1-0.2,0.1-0.3c0.3-0.9,0.5-1.6,0.3-2.3c0-0.1-0.3-0.1-0.5-0.2c-0.6,0.1-0.3,1.9,0,2.5
		C43,58.6,43.1,58.8,43.1,58.8"/>
	<path class="st11" d="M43.5,56.3c0,0.2,0.1,0.7,0,0.9c0,0.2,0.1,0.5,0.3,0.7c0,0.1,0.1,0.2,0.1,0.1c0.2-0.2,0.2-0.9,0.1-1
		C44,56.9,43.6,56.5,43.5,56.3"/>
	<path class="st11" d="M44.4,55.3c0-0.2,0.2-0.3,0.3-0.4c0.1-0.1-0.2-0.5-0.3-0.6c0,0.1-0.1,0.1-0.1,0.1c-0.1-0.4-0.5-0.6-0.7-0.8
		c0,0.1-0.2,0.2-0.3,0.4c0.1,0.3,0.1,0.7,0.1,0.9c0,0.1,0.1,0.1,0.1,0.1c0.2-0.2,0.3-0.4,0.4-0.8C44.1,54.6,44.4,54.9,44.4,55.3"/>
	<path class="st11" d="M43.1,56c0-0.1,0.1-0.3,0.2-0.4c0.2-0.5,0.1-1.5-0.2-1.7c0,0.1,0,0.1-0.1,0.2c-0.1,0.1-0.1,0.2-0.2,0.4
		C42.7,54.6,42.6,55.6,43.1,56"/>
	<path class="st11" d="M45.1,54.8c0,0-0.1,0.1-0.1,0.1c-0.3,0.2-0.5,0.2-0.5,0.5c0,0.2,0.1,0.3,0,0.4C44.7,55.7,45,55.2,45.1,54.8"
		/>
	<path class="st11" d="M43.2,56c0.3,0.3,0.9,0.1,1.2-0.2c0.1-0.1,0.1-0.3-0.1-0.7c-0.1-0.2-0.3-0.5-0.3-0.7
		C43.9,54.9,43.1,55.7,43.2,56"/>
	<path class="st11" d="M41.8,54.3c-0.1-0.1-0.2-0.1-0.3-0.1c-0.1,0.1,0.1,0.1,0.2,0.4c0.2,0.4,0.5,1,1.2,1.3
		c-0.1-0.1-0.2-0.4-0.2-0.7C42.4,54.7,42,54.4,41.8,54.3"/>
	<path class="st11" d="M44.4,55.9c-0.1,0.1-0.2,0.2-0.4,0.3c0.1,0,0.5,0.1,0.8,0.3c0.3-0.1,1.1,0.2,1.5-0.1c-0.2-0.1-0.5-0.4-1-0.5
		C45,55.9,44.5,55.8,44.4,55.9"/>
	<path class="st11" d="M43.9,56.2c-0.1,0-0.3,0-0.4,0c0.1,0.5,0.7,0.6,0.9,1.2c0.4,1.1,0.5,1,0.6,1C45.4,57.7,45.3,56.5,43.9,56.2"
		/>
	<path class="st11" d="M42.4,55.8c-0.8-0.3-1.8,0.7-1.8,1.5c0.7,0,1.2-1,1.9-1c0-0.2,0.2-0.3,0.3-0.3C42.8,55.9,42.6,55.9,42.4,55.8
		"/>
	<path class="st11" d="M43.1,58.7c0.4-1.1,0.5-1.8,0.4-2.5c-0.1,0-0.3-0.1-0.5-0.2C42.3,56.1,42.7,58.4,43.1,58.7"/>
	<path class="st11" d="M43.5,56.3c0,0.2,0.1,0.7,0,0.9c0,0.2,0.2,0.6,0.4,0.9c0.2-0.3,0.2-0.9,0.1-1C44,56.9,43.6,56.5,43.5,56.3"/>
	<path class="st11" d="M44,42.6c0-0.2-0.2-0.3-0.3-0.4c-0.1-0.1,0.2-0.5,0.3-0.6c0,0.1,0.1,0.1,0.1,0.1c0.1-0.3,0.3-0.5,0.5-0.6
		c0.1-0.1,0.2-0.2,0.2-0.2c0.1,0.1,0.2,0.2,0.3,0.4c-0.1,0.3-0.1,0.7-0.1,0.9c0,0.1-0.1,0.1-0.1,0.1c-0.2-0.2-0.3-0.4-0.4-0.8
		C44.4,41.9,44.1,42.2,44,42.6"/>
	<path class="st11" d="M45.4,43.3c0-0.1-0.1-0.3-0.2-0.4c-0.2-0.5-0.1-1.2,0.1-1.6c0-0.1,0.1-0.2,0.1-0.1c0.1,0.1,0.1,0.2,0.3,0.6
		C45.7,41.9,45.8,42.9,45.4,43.3"/>
	<path class="st11" d="M43.4,42.1c0.4,0.2,0.6,0.3,0.7,0.6c0,0.2-0.1,0.3,0,0.4c-0.2-0.1-0.4-0.4-0.6-0.7
		C43.4,42.3,43.3,42,43.4,42.1"/>
	<path class="st11" d="M45.3,43.3c-0.3,0.3-0.9,0.1-1.2-0.2C44,43,44,42.7,44.1,42.4c0.1-0.2,0.3-0.5,0.3-0.7
		C44.6,42.2,45.3,43,45.3,43.3"/>
	<path class="st11" d="M46.7,41.6c0.1-0.1,0.2-0.1,0.3-0.1c0.1,0.1-0.1,0.1-0.2,0.4c-0.2,0.4-0.5,1-1.2,1.3c0.1-0.1,0.2-0.4,0.2-0.7
		C46.1,42,46.5,41.7,46.7,41.6"/>
	<path class="st11" d="M44.1,43.1c0.1,0.1,0.2,0.2,0.4,0.3c-0.1,0-0.5,0.1-0.8,0.3c-0.2-0.1-0.7,0.1-1.1,0c-0.2,0-0.5,0-0.4-0.2
		c0.1-0.2,0.5-0.4,1-0.5C43.4,43.1,43.9,43,44.1,43.1"/>
	<path class="st11" d="M44.5,43.5c0.1,0,0.3,0,0.4,0c-0.1,0.5-0.7,0.6-0.9,1.2c-0.2,0.5-0.3,0.8-0.4,0.9c-0.1,0.1-0.2,0.2-0.2,0.1
		C43,45.1,43.2,43.7,44.5,43.5"/>
	<path class="st11" d="M46,43.1c0.8-0.3,1.8,0.7,1.8,1.5c-0.7,0-1.2-1-1.9-1c0-0.2-0.2-0.3-0.3-0.3C45.7,43.2,45.9,43.1,46,43.1"/>
	<path class="st11" d="M45.4,46c0-0.1-0.1-0.2-0.1-0.3c-0.3-0.9-0.5-1.6-0.3-2.3c0-0.1,0.3-0.1,0.5-0.2c0.6,0.1,0.3,1.9,0,2.5
		C45.4,45.9,45.4,46.1,45.4,46"/>
	<path class="st11" d="M44.9,43.6c0,0.2-0.1,0.7,0,0.9c0,0.2-0.1,0.5-0.3,0.7c0,0.1-0.1,0.2-0.1,0.1c-0.2-0.2-0.2-0.9-0.1-1
		C44.5,44.2,44.8,43.8,44.9,43.6"/>
	<path class="st11" d="M44,42.6c0-0.2-0.2-0.3-0.3-0.4c-0.1-0.1,0.2-0.5,0.3-0.6c0,0.1,0.1,0.1,0.1,0.1c0.1-0.4,0.5-0.6,0.7-0.8
		c0,0.1,0.2,0.2,0.3,0.4c-0.1,0.3-0.1,0.7-0.1,0.9c0,0.1-0.1,0.1-0.1,0.1c-0.2-0.2-0.3-0.4-0.4-0.8C44.4,41.9,44.1,42.2,44,42.6"/>
	<path class="st11" d="M45.4,43.3c0-0.1-0.1-0.3-0.2-0.4c-0.2-0.5-0.1-1.5,0.2-1.7c0,0.1,0,0.1,0.1,0.2c0.1,0.1,0.1,0.2,0.2,0.4
		C45.7,41.9,45.8,42.9,45.4,43.3"/>
	<path class="st11" d="M43.4,42.1c0,0,0.1,0.1,0.1,0.1c0.3,0.2,0.5,0.2,0.5,0.5c0,0.2-0.1,0.3,0,0.4C43.8,43,43.4,42.5,43.4,42.1"/>
	<path class="st11" d="M45.3,43.3c-0.3,0.3-0.9,0.1-1.2-0.2C44,43,44,42.7,44.1,42.4c0.1-0.2,0.3-0.5,0.3-0.7
		C44.6,42.2,45.3,43,45.3,43.3"/>
	<path class="st11" d="M46.7,41.6c0.1-0.1,0.2-0.1,0.3-0.1c0.1,0.1-0.1,0.1-0.2,0.4c-0.2,0.4-0.5,1-1.2,1.3c0.1-0.1,0.2-0.4,0.2-0.7
		C46.1,42,46.5,41.7,46.7,41.6"/>
	<path class="st11" d="M44.1,43.1c0.1,0.1,0.2,0.2,0.4,0.3c-0.1,0-0.5,0.1-0.8,0.3c-0.3-0.1-1.1,0.2-1.5-0.1c0.2-0.1,0.5-0.4,1-0.5
		C43.4,43.1,43.9,43,44.1,43.1"/>
	<path class="st11" d="M44.5,43.5c0.1,0,0.3,0,0.4,0c-0.1,0.5-0.7,0.6-0.9,1.2c-0.4,1.1-0.5,1-0.6,1C43.1,45,43.2,43.7,44.5,43.5"/>
	<path class="st11" d="M46,43.1c0.8-0.3,1.8,0.7,1.8,1.5c-0.7,0-1.2-1-1.9-1c0-0.2-0.2-0.3-0.3-0.3C45.7,43.2,45.9,43.1,46,43.1"/>
	<path class="st11" d="M45.4,46c-0.4-1.1-0.5-1.8-0.4-2.5c0.1,0,0.3-0.1,0.5-0.2C46.2,43.4,45.7,45.6,45.4,46"/>
	<path class="st11" d="M44.9,43.6c0,0.2-0.1,0.7,0,0.9c0,0.2-0.2,0.6-0.4,0.9c-0.2-0.3-0.2-0.9-0.1-1C44.5,44.2,44.8,43.8,44.9,43.6
		"/>
	<path class="st11" d="M58.7,59.1c0,0.2,0.3,0.4,0.4,0.5c0.1,0.2-0.2,0.6-0.4,0.8c0-0.1-0.1-0.2-0.2-0.2c-0.1,0.4-0.4,0.6-0.6,0.8
		c-0.1,0.1-0.2,0.3-0.3,0.2c-0.1-0.2-0.3-0.2-0.4-0.5c0.1-0.5,0.2-0.9,0.1-1.2c0-0.1,0.1-0.1,0.2-0.2c0.2,0.3,0.4,0.6,0.6,1
		C58.2,60,58.6,59.6,58.7,59.1"/>
	<path class="st11" d="M56.9,58.2c0,0.2,0.2,0.4,0.2,0.6c0.2,0.6,0.1,1.6-0.1,2.1c0,0.1-0.1,0.2-0.1,0.2c-0.1-0.2-0.2-0.3-0.4-0.8
		C56.5,60,56.3,58.7,56.9,58.2"/>
	<path class="st11" d="M59.6,59.8c-0.5-0.3-0.8-0.4-0.9-0.8c0-0.2,0.1-0.4,0-0.5c0.2,0.1,0.6,0.5,0.7,0.9
		C59.5,59.5,59.7,59.8,59.6,59.8"/>
	<path class="st11" d="M57,58.2c0.4-0.3,1.2-0.2,1.6,0.3c0.1,0.1,0.1,0.5-0.1,0.9c-0.1,0.3-0.4,0.6-0.4,0.9C58,59.6,57,58.6,57,58.2
		"/>
	<path class="st11" d="M55.2,60.4c-0.1,0.1-0.3,0.2-0.4,0.1c-0.1-0.2,0.1-0.2,0.3-0.5c0.2-0.6,0.6-1.4,1.6-1.7
		c-0.1,0.2-0.3,0.6-0.3,0.9C56,59.9,55.4,60.3,55.2,60.4"/>
	<path class="st11" d="M58.6,58.4c-0.1-0.1-0.3-0.3-0.6-0.4c0.2,0,0.7-0.1,1-0.4c0.3,0.1,0.9-0.1,1.4-0.1c0.2,0,0.6,0,0.5,0.2
		c-0.1,0.2-0.6,0.5-1.4,0.7C59.5,58.4,58.8,58.5,58.6,58.4"/>
	<path class="st11" d="M58,58c-0.1,0-0.4,0-0.5,0c0.2-0.6,0.9-0.8,1.2-1.6c0.3-0.7,0.4-1,0.6-1.2c0.1-0.2,0.2-0.2,0.3-0.2
		C60,55.9,59.8,57.6,58,58"/>
	<path class="st11" d="M56.1,58.5c-1.1,0.3-2.4-0.9-2.3-2c0.9,0.1,1.6,1.3,2.6,1.4c0.1,0.2,0.3,0.3,0.3,0.4
		C56.5,58.3,56.2,58.4,56.1,58.5"/>
	<path class="st11" d="M56.9,54.6c0.1,0.1,0.1,0.2,0.1,0.4c0.5,1.2,0.6,2.1,0.3,3c0,0.1-0.5,0.1-0.7,0.3c-0.8-0.1-0.4-2.4,0-3.3
		C56.8,54.7,56.9,54.5,56.9,54.6"/>
	<path class="st11" d="M57.5,57.8c0-0.2,0.1-1,0.1-1.2c0-0.2,0.2-0.6,0.4-0.9c0-0.1,0.1-0.2,0.2-0.2c0.3,0.3,0.2,1.2,0.2,1.4
		C58.1,57,57.6,57.5,57.5,57.8"/>
	<path class="st11" d="M58.7,59.1c0,0.2,0.3,0.4,0.4,0.5c0.1,0.2-0.2,0.6-0.4,0.8c0-0.1-0.1-0.2-0.2-0.2c-0.1,0.5-0.7,0.8-0.9,1
		c0-0.2-0.3-0.2-0.4-0.5c0.1-0.5,0.2-0.9,0.1-1.2c0-0.1,0.1-0.1,0.2-0.2c0.2,0.3,0.4,0.6,0.6,1C58.2,60,58.6,59.6,58.7,59.1"/>
	<path class="st11" d="M56.9,58.2c0,0.2,0.2,0.4,0.2,0.6c0.2,0.7,0.1,2-0.2,2.3c0-0.1-0.1-0.2-0.1-0.3c-0.1-0.1-0.2-0.3-0.3-0.5
		C56.5,60,56.3,58.7,56.9,58.2"/>
	<path class="st11" d="M59.6,59.8c-0.1,0-0.1-0.1-0.2-0.1c-0.4-0.2-0.7-0.3-0.7-0.6c0-0.2,0.1-0.4,0-0.5
		C59,58.6,59.5,59.3,59.6,59.8"/>
	<path class="st11" d="M57,58.2c0.4-0.3,1.2-0.2,1.6,0.3c0.1,0.1,0.1,0.5-0.1,0.9c-0.1,0.3-0.4,0.6-0.4,0.9C58,59.6,57,58.6,57,58.2
		"/>
	<path class="st11" d="M55.2,60.4c-0.1,0.1-0.3,0.2-0.4,0.1c-0.1-0.2,0.1-0.2,0.3-0.5c0.2-0.6,0.6-1.4,1.6-1.7
		c-0.1,0.2-0.3,0.6-0.3,0.9C56,59.9,55.4,60.3,55.2,60.4"/>
	<path class="st11" d="M58.6,58.4c-0.1-0.1-0.3-0.3-0.6-0.4c0.2,0,0.7-0.1,1-0.4c0.4,0.1,1.5-0.3,2,0.2c-0.2,0.1-0.6,0.5-1.4,0.7
		C59.5,58.4,58.8,58.5,58.6,58.4"/>
	<path class="st11" d="M58,58c-0.1,0-0.4,0-0.5,0c0.2-0.6,0.9-0.8,1.2-1.6c0.5-1.4,0.7-1.3,0.8-1.4C59.9,55.9,59.8,57.6,58,58"/>
	<path class="st11" d="M56.1,58.5c-1.1,0.3-2.4-0.9-2.3-2c0.9,0.1,1.6,1.3,2.6,1.4c0.1,0.2,0.3,0.3,0.3,0.4
		C56.5,58.3,56.2,58.4,56.1,58.5"/>
	<path class="st11" d="M56.9,54.6c0.6,1.4,0.6,2.3,0.5,3.4c-0.2,0-0.5,0.1-0.7,0.3C55.8,58.1,56.5,55.1,56.9,54.6"/>
	<path class="st11" d="M57.5,57.8c0-0.2,0.1-1,0.1-1.2c0-0.2,0.2-0.8,0.5-1.1c0.3,0.4,0.2,1.2,0.2,1.4C58.1,57,57.6,57.5,57.5,57.8"
		/>
	<path class="st11" d="M30.6,71c0,0.2,0.2,0.3,0.3,0.4c0.1,0.1-0.2,0.5-0.3,0.6c0-0.1-0.1-0.1-0.1-0.1c0,0.3-0.3,0.5-0.5,0.6
		c-0.1,0.1-0.2,0.2-0.2,0.2c-0.1-0.1-0.2-0.2-0.3-0.4c0.1-0.3,0.1-0.7,0.1-0.9c0-0.1,0.1-0.1,0.1-0.1c0.2,0.2,0.3,0.4,0.4,0.8
		C30.3,71.7,30.6,71.4,30.6,71"/>
	<path class="st11" d="M29.3,70.4c0,0.1,0.1,0.3,0.2,0.4c0.2,0.5,0.1,1.2-0.1,1.6c0,0.1-0.1,0.2-0.1,0.1c-0.1-0.1-0.1-0.2-0.3-0.6
		C28.9,71.7,28.8,70.7,29.3,70.4"/>
	<path class="st11" d="M31.3,71.6c-0.4-0.2-0.6-0.3-0.7-0.6c0-0.2,0.1-0.3,0-0.4c0.2,0.1,0.4,0.4,0.6,0.7
		C31.2,71.4,31.4,71.6,31.3,71.6"/>
	<path class="st11" d="M29.3,70.3c0.3-0.3,0.9-0.1,1.2,0.2c0.1,0.1,0.1,0.3-0.1,0.7c-0.1,0.2-0.3,0.5-0.3,0.7
		C30.1,71.4,29.3,70.7,29.3,70.3"/>
	<path class="st11" d="M28,72c-0.1,0.1-0.2,0.1-0.3,0.1c-0.1-0.1,0.1-0.1,0.2-0.4c0.2-0.4,0.5-1,1.2-1.3c-0.1,0.1-0.2,0.4-0.2,0.7
		C28.5,71.6,28.1,71.9,28,72"/>
	<path class="st11" d="M30.6,70.5c-0.1-0.1-0.2-0.2-0.4-0.3c0.1,0,0.5-0.1,0.8-0.3c0.2,0.1,0.7-0.1,1.1,0c0.2,0,0.5,0,0.4,0.2
		c-0.1,0.2-0.5,0.4-1,0.5C31.2,70.5,30.7,70.6,30.6,70.5"/>
	<path class="st11" d="M30.1,70.2c-0.1,0-0.3,0-0.4,0c0.1-0.5,0.7-0.6,0.9-1.2c0.2-0.5,0.3-0.8,0.4-0.9c0.1-0.1,0.2-0.2,0.2-0.1
		C31.6,68.6,31.5,69.9,30.1,70.2"/>
	<path class="st11" d="M28.6,70.6c-0.8,0.3-1.8-0.7-1.8-1.5c0.7,0,1.2,1,1.9,1c0,0.2,0.2,0.3,0.3,0.3C28.9,70.4,28.7,70.5,28.6,70.6
		"/>
	<path class="st11" d="M29.3,67.6c0,0.1,0.1,0.2,0.1,0.3c0.3,0.9,0.5,1.6,0.3,2.3c0,0.1-0.3,0.1-0.5,0.2c-0.6-0.1-0.3-1.9,0-2.5
		C29.2,67.7,29.3,67.5,29.3,67.6"/>
	<path class="st11" d="M29.7,70c0-0.2,0.1-0.7,0-0.9c0-0.2,0.1-0.5,0.3-0.7c0-0.1,0.1-0.2,0.1-0.1c0.2,0.2,0.2,0.9,0.1,1
		C30.1,69.5,29.8,69.8,29.7,70"/>
	<path class="st11" d="M30.6,71c0,0.2,0.2,0.3,0.3,0.4c0.1,0.1-0.2,0.5-0.3,0.6c0-0.1-0.1-0.1-0.1-0.1c-0.1,0.4-0.5,0.6-0.7,0.8
		c0-0.1-0.2-0.2-0.3-0.4c0.1-0.3,0.1-0.7,0.1-0.9c0-0.1,0.1-0.1,0.1-0.1c0.2,0.2,0.3,0.4,0.4,0.8C30.3,71.7,30.6,71.4,30.6,71"/>
	<path class="st11" d="M29.3,70.4c0,0.1,0.1,0.3,0.2,0.4c0.2,0.5,0.1,1.5-0.2,1.7c0-0.1,0-0.1-0.1-0.2c-0.1-0.1-0.1-0.2-0.2-0.4
		C28.9,71.7,28.8,70.7,29.3,70.4"/>
	<path class="st11" d="M31.3,71.6c0,0-0.1-0.1-0.1-0.1c-0.3-0.2-0.5-0.2-0.5-0.5c0-0.2,0.1-0.3,0-0.4C30.9,70.7,31.2,71.2,31.3,71.6
		"/>
	<path class="st11" d="M29.3,70.3c0.3-0.3,0.9-0.1,1.2,0.2c0.1,0.1,0.1,0.3-0.1,0.7c-0.1,0.2-0.3,0.5-0.3,0.7
		C30.1,71.4,29.3,70.7,29.3,70.3"/>
	<path class="st11" d="M28,72c-0.1,0.1-0.2,0.1-0.3,0.1c-0.1-0.1,0.1-0.1,0.2-0.4c0.2-0.4,0.5-1,1.2-1.3c-0.1,0.1-0.2,0.4-0.2,0.7
		C28.5,71.6,28.1,71.9,28,72"/>
	<path class="st11" d="M30.6,70.5c-0.1-0.1-0.2-0.2-0.4-0.3c0.1,0,0.5-0.1,0.8-0.3c0.3,0.1,1.1-0.2,1.5,0.1c-0.2,0.1-0.5,0.4-1,0.5
		C31.2,70.5,30.7,70.6,30.6,70.5"/>
	<path class="st11" d="M30.1,70.2c-0.1,0-0.3,0-0.4,0c0.1-0.5,0.7-0.6,0.9-1.2c0.4-1.1,0.5-1,0.6-1C31.5,68.6,31.5,69.9,30.1,70.2"
		/>
	<path class="st11" d="M28.6,70.6c-0.8,0.3-1.8-0.7-1.8-1.5c0.7,0,1.2,1,1.9,1c0,0.2,0.2,0.3,0.3,0.3C28.9,70.4,28.7,70.5,28.6,70.6
		"/>
	<path class="st11" d="M29.3,67.6c0.4,1.1,0.5,1.8,0.4,2.5c-0.1,0-0.3,0.1-0.5,0.2C28.4,70.3,28.9,68,29.3,67.6"/>
	<path class="st11" d="M29.7,70c0-0.2,0.1-0.7,0-0.9c0-0.2,0.2-0.6,0.4-0.9c0.2,0.3,0.2,0.9,0.1,1C30.1,69.5,29.8,69.8,29.7,70"/>
	<path class="st15" d="M53.7,81.1c0.1,0,1.1,0.2,0.9,1.1c0.5-0.2,0.9,0.2,0.3,0.8c-0.1,0.1-0.9,0.7-1.3,0.8c0.3-0.3,0.1-0.3,1-1.1
		c-0.9,0.7-1.2,0.7-1.7,1c-0.8,0.5,0.5-0.6,1.1-1.6c-0.5,0.5-0.7,0.5-1.1,0.9C53,82.4,53.9,81.7,53.7,81.1"/>
	<path class="st15" d="M35.2,56.3c0-0.1-0.9-0.6-1.4,0.2c-0.2-0.5-0.8-0.4-0.8,0.3c0,0.1,0.2,1.1,0.4,1.4c0-0.4,0.1-0.3,0.1-1.4
		c0.2,1.1,0.4,1.2,0.5,1.8c0.2,0.9,0-0.7,0.3-1.8c0,0.7,0.1,0.8,0.2,1.4C34.8,57.6,34.6,56.6,35.2,56.3"/>
</g>
<g>
	<path class="st16" d="M330,111c-3,1.3-4,1.4-4.2,1.4c0,0,0,0-0.1,0c0-0.2-0.1-0.5-0.1-0.9V90h10.4V74.5h-10.4V61.7h-12.2l-0.5,2.5
		c-0.5,2.7-1.6,6.2-3.1,10.5l-4.5,0.6l-7.5-1.8l-0.4,0c-3.7,0-6.9,2.6-11.4,5.5l-1.7-4.5h-21V90h6.7v22.2h-6.7v0.5H260V92.1
		c0-5.5-1.7-10-5-13.4c-3.3-3.4-8-5.2-13.7-5.2c-2.7,0-6.1,0.4-10.1,1.1c-3.8,0.7-7.2,1.7-10.1,2.9l-1.9,0.8v18.5h6.1
		c-0.8,0.6-1.6,1.2-2.3,1.8c-3.7,3.6-5.6,8.1-5.6,13.3c0,0.3,0,0.5,0,0.8h-3.1V96c0-6.7-1.2-12-3.5-15.9c-1.8-3-5.6-6.6-13.6-6.6
		c-4.2,0-8.1,2.3-13.4,5.5c-2.4-2.5-7.3-5.5-14-5.5c-3.4,0-7.1,1.9-10.9,4.5l-0.8-3.5h-16.5c0.1-0.7,0.1-1.4,0.1-2.1
		c0-5.6-2.4-10.3-7.1-13.8c-4.5-3.4-10.1-5.1-16.8-5.1c-6.7,0-12.4,1.8-17,5.4c-4.7,3.7-7.1,8.9-7.1,15.4c0,2.8,0.5,5.6,1.4,8
		c1.6,4.7,5.6,9.4,11.9,14l15.2,9.8c2,1.4,2.8,2,3,2.3c0.1,0.2,0.3,0.4,0.3,0.9c0,0.7-1.4,1.3-1.9,1.5c-1.9,0.8-4.5,1.2-7.8,1.2
		c-2.7,0-5.3-0.4-7.9-1.2v-9.5H92.9v21.3l1.6,0.9c5.8,3.4,12.7,5.1,20.6,5.1c8.1,0,14.5-1.6,19.2-4.7c1.6-1.1,2.9-2.3,4-3.7v7.7
		h28.6v-15.5h-5.4V94.4c4.1-3.8,6.2-4.4,7.1-4.4c0.5,0,2.1,0.1,2.5,0.7c0.4,0.7,0.8,2.2,0.8,5.3v16.3h-4.2v15.5h27.8v-15h-7.2V96
		c0-0.8,0-1.8-0.1-3c3.4-2.4,5.4-3,6.5-3c0.6,0,2.1,0.1,2.4,0.7c0.4,0.7,0.8,2.2,0.8,5.3v18.7c0,4.5,0.8,7.8,2.6,10
		c1.9,2.4,5,3.6,9.4,3.6c3.8,0,7.2-0.8,10-2.3l1.6-0.9v-1.2c0.1,0.1,0.3,0.3,0.4,0.4c3,3,7.1,4.5,12.2,4.5c4,0,7.6-1.6,10.9-4.7
		c1.5,2.3,4.4,4.2,10.3,4.2c3.1,0,5.9-0.5,8.3-1.4v0.9h29.4v-15.5h-6.3V94c3.4-1.9,6.6-2.9,9.7-3l6.1,1.8l0.7-2.8h6.2v23
		c0,4.5,1.1,8.2,3.3,11.1c2.4,3.1,6.2,4.7,11.2,4.7c4.5,0,8.7-1.2,12.7-3.5l2.4-1.4l-6-14.1L330,111z M234.8,112.3
		c-0.6,0-0.9-0.1-1.1-0.1c0,0,0,0,0-0.1c0-1,0.3-1.7,1-2.3c0.5-0.4,1.6-1,4.4-1h2.3C239.2,111.1,237,112.3,234.8,112.3z M234.2,90.7
		c2-0.5,4.3-0.7,6.7-0.7c2.5,0,2.7,0.8,2.7,2.1v1h-4.4c-1.7,0-3.4,0.1-4.9,0.3V90.7z M111,77.6c-0.6-0.9-0.9-2.2-0.9-3.8
		c0-0.9,0.2-1.8,1.7-2.6c1.6-0.9,3.8-1.3,6.5-1.3c3.2,0,4.9,0.7,5.7,1.2c1.2,0.9,1.4,1.4,1.4,1.4c0,0.2,0,0.3,0,0.4
		c-0.1,0-0.3,0-0.6,0.1l-3,0.2v12.6l-7-4.7C112.5,79.5,111.5,78.3,111,77.6z M131.5,92.4l-5-3.4c4.4-0.3,7.8-1.6,10.3-3.7
		c0.5-0.4,1-0.9,1.4-1.5V90h6.7v22.2h-3.4c0.1-1,0.3-2.1,0.3-3.2C141.8,102.6,138.4,97,131.5,92.4z"/>
	<path class="st16" d="M489.7,109.7l-2.9,1.3c-3,1.3-4,1.4-4.2,1.4c0,0,0,0-0.1,0c0-0.2-0.1-0.5-0.1-0.9V90h10.4V74.5h-10.4V61.7
		h-12.2l-0.5,2.5c-0.5,2.7-1.6,6.2-3.1,10.5l-8.3,1.1v5.5c-4.4-5.1-10.5-7.7-18.1-7.7c-7.6,0-13.7,4.6-18.1,9.6
		c0-0.4,0.1-2.8,0.1-3.3c0-7.7-3-13.9-8.9-18.3c-5.7-4.3-14.4-6.5-25.8-6.5h-3.9c-14.2,0-24.7,2.3-31.4,6.7
		c-6.9,4.7-10.5,11.2-10.5,19.3c0,5.2,1.4,9.7,4.3,13.4c3,3.9,7.6,5.9,13.7,5.9c7.6,0,11.6-3.4,13.5-6.3c1.3-1.9,2.4-4.1,3-6.5v23.6
		h-8.5v16.5H403v-16.5h-10.2V104c1.9,0.2,4,0.3,6.2,0.3c6.7,0,12.3-2.2,16.7-6.5c-0.1,1.1-0.1,2.2-0.1,3.3c0,7.8,2.2,14.4,6.4,19.6
		c4.4,5.3,10.6,8,18.4,8c7.8,0,14-2.7,18.4-8c4.3-5.2,6.4-11.8,6.4-19.6c0-4.1-0.6-7.8-1.7-11.1h2.6v23c0,4.5,1.1,8.2,3.3,11.1
		c2.4,3.1,6.2,4.7,11.2,4.7c4.5,0,8.7-1.2,12.7-3.5l2.4-1.4L489.7,109.7z M448.8,101.1c0,3.4-0.8,6.2-2.4,8.3
		c-1.4,1.9-3.4,2.8-6,2.8c-2.6,0-4.6-0.9-6-2.8c-1.6-2.1-2.4-4.9-2.4-8.3c0-3.4,0.8-6.2,2.4-8.3c1.4-1.9,3.4-2.8,6-2.8
		c2.6,0,4.6,0.9,6,2.8C448,95,448.8,97.7,448.8,101.1z M392.8,71.7c4.7,0.2,8.2,0.9,10.2,2.2c2.1,1.3,3,3.1,3,5.6
		c0,2.7-0.7,4.8-2.1,6.2c-1.4,1.4-3.2,2.1-5.6,2.1c-2,0-3.9-0.2-5.5-0.5V71.7z M361.5,77.8l-0.1,3c-0.1,3.2-1.1,3.2-1.6,3.2
		c-0.9,0-2,0-2-3.2c0-2.8,1.2-4.8,3.9-6.2c2.8-1.5,7.7-2.4,14.6-2.7v6H361.5z"/>
	<path class="st17" d="M331.8,110.2c-3,1.3-4.2,1.4-4.5,1.4c-0.4,0-0.6,0-0.7-0.1c-0.1-0.2-0.2-0.6-0.2-1.6V87.7h10.4v-14h-10.4V61
		h-10.8l-0.4,1.9c-0.6,2.8-1.7,6.5-3.3,11l-5.1,0.6l-7.6-1.8l-0.3,0c-3.8,0-8.1,1.7-12.9,4.9l-0.8-3.9h-19.6v14h6.7v23.8h-6.7v0.5
		h-5.1V90.6c0-5.3-1.6-9.7-4.8-12.9c-3.2-3.3-7.6-4.9-13.2-4.9c-2.7,0-6,0.4-9.9,1.1c-3.7,0.7-7.1,1.6-10,2.8l-1.5,0.6v17.2h8.3
		c-1.8,0.8-3.4,1.9-4.8,3.2c-3.6,3.5-5.4,7.8-5.4,12.7c0,0.5,0,1.1,0.1,1.6h-4.7V94.5c0-6.5-1.1-11.7-3.4-15.5
		c-1.7-2.8-5.2-6.2-12.9-6.2c-4.2,0-9,1.7-14.3,5c-2.9-3.3-7.3-5-13-5c-3.5,0-7.3,1.5-11.3,4.4l-1-3.5h-16.8
		c0.1-0.9,0.2-1.9,0.2-2.9c0-5.4-2.3-9.8-6.7-13.2c-4.4-3.3-9.8-5-16.3-5c-6.5,0-12.1,1.8-16.5,5.3c-4.5,3.6-6.8,8.6-6.8,14.8
		c0,2.8,0.4,5.4,1.3,7.8c1.6,4.5,5.5,9.1,11.7,13.7l15.1,9.7c2,1.3,2.8,2.1,3.2,2.5c0.3,0.4,0.5,0.8,0.5,1.4c0,0.8-0.8,1.6-2.3,2.2
		c-2,0.8-4.7,1.3-8.1,1.3c-3,0-5.9-0.5-8.7-1.4v-9.3H95.2v20l1.2,0.7c5.7,3.3,12.4,5,20.2,5c7.9,0,14.2-1.5,18.8-4.6
		c2.3-1.5,4-3.4,5.2-5.6v9.5h27v-14h-5.4v-19c4.2-4,6.6-4.8,7.9-4.8c1.7,0,2.8,0.4,3.2,1.1c0.6,1.2,0.9,3.1,0.9,5.6v17h-4.6v14h26.6
		V112h-7.2V94.5c0-0.8,0-2-0.1-3.4c3-2.2,5.5-3.4,7.3-3.4c1.7,0,2.7,0.4,3.1,1.1c0.6,1.2,0.9,3.1,0.9,5.6v18.7
		c0,4.3,0.8,7.5,2.4,9.5c1.7,2.2,4.7,3.3,8.8,3.3c3.7,0,6.9-0.8,9.6-2.2l1.2-0.7V120c0.5,0.8,1.1,1.5,1.7,2.2
		c2.8,2.8,6.8,4.3,11.7,4.3c4,0,7.8-1.7,11.1-5.2c1.2,2.4,3.9,4.7,10,4.7c3.5,0,6.5-0.6,9.1-1.8v1.4h27.9v-14h-6.3V92
		c3.7-2.2,7.2-3.3,10.5-3.3l5.4,1.6l0.7-2.6h7.6v23.8c0,4.3,1.1,7.8,3.2,10.6c2.2,2.9,5.8,4.4,10.6,4.4c4.3,0,8.5-1.1,12.3-3.4
		l1.8-1.1l-5.4-12.8L331.8,110.2z M124,85.7l-8.2-5.6c-2.4-1.6-3.4-2.9-3.9-3.6c-0.7-1.1-1-2.5-1-4.2c0-1.5,0.6-2.5,2.1-3.3
		c1.7-0.9,4-1.4,6.9-1.4c2.7,0,4.8,0.5,6.1,1.4c1.1,0.8,1.7,1.5,1.7,2c0,0.8-0.2,1-0.1,1c0,0-0.3,0.2-1.2,0.2l-2.2,0.1V85.7z
		 M132.6,91.5l-7-4.7l0.9,0c4.9-0.1,8.8-1.3,11.4-3.6c1.1-1,2-2.1,2.7-3.5v8h6.7v23.8h-5.2c0.2-1.3,0.4-2.6,0.4-4
		C142.5,101.4,139.2,96,132.6,91.5z M235.7,107.7c0.9-0.8,2.6-1.2,4.9-1.2h4c-2.7,3.3-5.5,5-8.3,5c-1.9,0-1.9-0.5-1.9-1
		C234.4,109.3,234.8,108.4,235.7,107.7z M234.9,88.6c2.2-0.6,4.7-0.8,7.5-0.8c2.9,0,3.4,1.1,3.4,2.9v1.8h-5.2c-2,0-4,0.2-5.7,0.5
		V88.6z"/>
	<path class="st17" d="M490.7,109.2l-2.2,0.9c-3,1.3-4.2,1.4-4.5,1.4c-0.4,0-0.6,0-0.7-0.1c-0.1-0.2-0.2-0.6-0.2-1.6V87.7h10.4v-14
		h-10.4V61h-10.8l-0.4,1.9c-0.6,2.8-1.7,6.5-3.3,11l-8.1,1V82c-0.4-0.5-0.7-1-1.1-1.5c-4.2-5.1-10.2-7.7-17.8-7.7
		c-7.6,0-13.6,2.6-17.8,7.7c-0.4,0.5-0.8,1.1-1.2,1.6c0.1-1.2,0.2-2.5,0.2-3.8c0-7.4-2.9-13.4-8.6-17.7c-5.6-4.2-14.1-6.3-25.4-6.3
		h-3.9c-14,0-24.4,2.2-30.9,6.6c-6.7,4.5-10.1,10.8-10.1,18.7c0,5,1.4,9.3,4.1,12.9c2.8,3.7,7.2,5.6,13,5.6c5.8,0,10.2-2,12.9-5.9
		c2.4-3.5,3.7-7.8,3.9-12.8l0.1-2.4h-14.4l-0.1,2.3c-0.2,3.9-1.7,3.9-2.4,3.9c-1,0-2.7,0-2.7-4c0-3.2,1.4-5.4,4.3-6.9
		c3-1.6,8.3-2.5,15.8-2.9v41.1h-8.5v14.9h33.6v-14.9h-10.2v-9c2.1,0.3,4.4,0.5,6.9,0.5c6.5,0,12-2.1,16.2-6.3
		c0.6-0.5,1.1-1.1,1.5-1.7c-0.3,1.8-0.4,3.6-0.4,5.6c0,7.6,2.1,14.1,6.2,19.1c4.2,5.1,10.2,7.7,17.8,7.7c7.6,0,13.6-2.6,17.8-7.7
		c4.1-5,6.2-11.4,6.2-19.1c0-4.4-0.7-8.4-2.1-11.9h4.6v23.8c0,4.3,1.1,7.8,3.2,10.6c2.2,2.9,5.8,4.4,10.6,4.4
		c4.3,0,8.5-1.1,12.3-3.4l1.8-1.1L490.7,109.2z M408.2,78c0,2.9-0.8,5.2-2.3,6.8c-1.5,1.6-3.6,2.4-6.1,2.4c-2.3,0-4.5-0.2-6.3-0.7
		V69.3c5.3,0.1,9.1,0.9,11.4,2.4C407.1,73.2,408.2,75.2,408.2,78z M448.5,108.4c-1.6,2.1-3.8,3.1-6.7,3.1c-2.9,0-5.1-1-6.7-3.1
		c-1.7-2.2-2.6-5.2-2.6-8.8c0-3.6,0.9-6.5,2.6-8.8c1.6-2.1,3.8-3.1,6.7-3.1c2.9,0,5.1,1,6.7,3.1c1.7,2.3,2.6,5.2,2.6,8.8
		C451,103.2,450.2,106.1,448.5,108.4z"/>
	<path class="st18" d="M114.4,82.1c-2.2-1.5-3.7-2.9-4.6-4.3c-0.9-1.4-1.4-3.3-1.4-5.5c0-2.4,1.1-4.1,3.3-5.3c2.1-1.1,4.7-1.7,8-1.7
		c3.3,0,5.8,0.6,7.5,1.8c1.8,1.3,2.7,2.6,2.7,3.9c0,1.3-0.3,2.3-1,2.8c-0.5,0.4-1.4,0.7-2.6,0.8v9.7c4.4-0.1,7.7-1.1,9.9-3
		c2.5-2.2,3.8-5.7,3.8-10.5c0-4.6-1.9-8.3-5.8-11.3c-3.9-3-8.9-4.5-14.9-4.5c-6,0-11,1.6-15,4.8c-4,3.2-5.9,7.4-5.9,12.9
		c0,2.5,0.4,4.8,1.2,7c1.4,4,5,8.2,10.8,12.5l15.1,9.8c1.8,1.2,3,2.2,3.6,2.9c0.7,0.8,1.1,1.8,1.1,3c0,1.9-1.3,3.3-3.8,4.4
		c-2.3,1-5.3,1.4-9,1.4c-3.6,0-7.2-0.7-10.6-2l-0.4-0.2v-8.6h-8.8v16.3c5.3,3.1,11.7,4.7,19,4.7c7.4,0,13.3-1.4,17.5-4.2
		c4.1-2.8,6.1-6.7,6.1-12.1c0-5.3-3-10.1-8.9-14.1L114.4,82.1z"/>
	<path class="st18" d="M212.5,94.5c0-6.1-1-10.9-3-14.3c-2-3.3-5.6-5-10.8-5c-4.1,0-8.9,1.9-14.4,5.5l-0.5,0.3l-0.3-0.5
		c-2.4-3.5-6.5-5.3-12.1-5.3c-3.6,0-7.6,1.9-11.9,5.6l-0.7,0.6l-1.4-5.2h-14.4v9.2h6.7v28.5h-6.7v9.2h22.3v-9.2h-5.4V91.5l0.2-0.2
		c4.1-4,7.4-6,10.1-6c2.7,0,4.5,0.8,5.3,2.4c0.8,1.5,1.1,3.7,1.1,6.7v19.4h-4.6v9.2h21.8v-8.8h-7.2V94.5c0-0.9-0.1-2.3-0.2-4.1
		l0-0.4l0.3-0.2c3.8-3,6.9-4.4,9.5-4.4c2.6,0,4.4,0.8,5.2,2.4c0.8,1.5,1.1,3.7,1.1,6.7v18.7c0,3.7,0.6,6.5,1.9,8.1
		c1.2,1.6,3.6,2.4,6.9,2.4c3.3,0,6.1-0.7,8.5-2v-7.3h-7.2V94.5z"/>
	<path class="st18" d="M258.3,90.6c0-4.7-1.4-8.5-4.1-11.3c-2.7-2.8-6.6-4.2-11.5-4.2c-2.5,0-5.7,0.4-9.5,1.1
		c-3.6,0.7-6.8,1.6-9.5,2.7v13.2h8.8v-5.3l0.5-0.1c2.7-0.9,5.9-1.3,9.4-1.3c4.8,0,5.8,2.9,5.8,5.3v4.2h-7.6c-6.2,0-10.9,1.5-14,4.6
		c-3.1,3-4.7,6.7-4.7,11c0,4.3,1.2,7.7,3.6,10.1c2.4,2.4,5.7,3.6,10,3.6c4.2,0,8.1-2.4,11.6-7l1.1-1.5v2c0,4.1,2.8,6.1,8.5,6.1
		c3.5,0,6.5-0.7,8.8-2v-7.3h-7.2V90.6z M248.2,105.5l-0.1,0.2c-3.6,5.5-7.6,8.2-11.8,8.2c-3.5,0-4.2-1.8-4.2-3.3
		c0-2,0.7-3.6,2.2-4.7c1.4-1.1,3.5-1.7,6.3-1.7h7.6V105.5z"/>
	<path class="st18" d="M285.3,81.1l-0.8,0.6l-1.1-5.6h-15.3v9.2h6.7v28.5h-6.7v9.2h23.1v-9.2h-6.3V90.7l0.3-0.2
		c4.5-2.8,8.8-4.2,12.8-4.2l0.2,0l3.3,1l2.9-10.9l-5.5-1.3C295.2,75.2,290.6,77.2,285.3,81.1z"/>
	<path class="st18" d="M327.3,114c-1.4,0-2.2-0.4-2.7-1.1c-0.4-0.7-0.6-1.6-0.6-2.9V85.3h10.4v-9.2H324V63.3h-6.5
		c-0.6,3.1-1.9,7.3-3.7,12.3l-0.1,0.4l-7.4,0.9v8.3h7.6v26.2c0,3.7,0.9,6.8,2.7,9.1c1.8,2.3,4.7,3.4,8.7,3.4c3.9,0,7.6-1,11.1-3.1
		l-3.7-8.7C330.2,113.4,328.4,114,327.3,114z"/>
	<path class="st18" d="M413,62.6c-5.2-3.9-13.2-5.8-23.9-5.8h-3.9c-13.5,0-23.5,2.1-29.6,6.2c-6.1,4.1-9.1,9.6-9.1,16.7
		c0,4.5,1.2,8.3,3.6,11.5c2.4,3.1,6.1,4.7,11.2,4.7c5,0,8.7-1.7,11-4.9c2.2-3.1,3.3-7,3.4-11.5H366c-0.2,5.1-2.7,6.2-4.7,6.2
		c-2.3,0-5.1-1.1-5.1-6.3c0-4,1.9-7.1,5.6-9c3.6-1.9,9.7-3,18.6-3.2l0.7,0v45.9h-8.5v10.2h28.8v-10.2h-10.2V98.8l0.8,0.2
		c2.5,0.5,5.3,0.8,8.5,0.8c5.9,0,10.8-1.9,14.6-5.6c3.8-3.7,5.7-9,5.7-15.7C420.7,71.7,418.1,66.4,413,62.6z M407.6,86.4
		c-2,2.1-4.6,3.1-7.8,3.1c-3.1,0-5.9-0.4-8.2-1.1l-0.5-0.1V66.9h0.6c6.8,0,11.5,0.9,14.4,2.8c3,1.9,4.5,4.7,4.5,8.3
		C410.6,81.5,409.6,84.3,407.6,86.4z"/>
	<path class="st18" d="M441.8,75.1c-6.8,0-12.2,2.3-16,6.9c-3.8,4.6-5.7,10.5-5.7,17.6c0,7.1,1.9,13,5.7,17.6
		c3.8,4.6,9.1,6.9,16,6.9c6.8,0,12.2-2.3,16-6.9c3.8-4.6,5.7-10.5,5.7-17.6c0-7.1-1.9-13-5.7-17.6C454,77.5,448.6,75.1,441.8,75.1z
		 M450.4,109.8c-2,2.7-4.9,4.1-8.5,4.1c-3.6,0-6.5-1.4-8.5-4.1c-2-2.7-3-6.1-3-10.2c0-4.1,1-7.5,3-10.2v0c2-2.7,4.9-4.1,8.5-4.1
		c3.6,0,6.5,1.4,8.5,4.1c2,2.7,3,6.1,3,10.2C453.4,103.7,452.4,107.1,450.4,109.8z"/>
	<path class="st18" d="M484,114c-1.4,0-2.2-0.4-2.7-1.1c-0.4-0.7-0.6-1.6-0.6-2.9V85.3h10.4v-9.2h-10.4V63.3h-6.5
		c-0.6,3.1-1.9,7.3-3.7,12.3l-0.1,0.4l-7.4,0.9v8.3h7.6v26.2c0,3.7,0.9,6.8,2.7,9.1c1.8,2.3,4.7,3.4,8.7,3.4c3.9,0,7.6-1,11.1-3.1
		l-3.7-8.7C487,113.4,485.2,114,484,114z"/>
	<path class="st18" d="M502.9,116.8c-0.7-0.8-1.7-1.1-3-1.1c-1.3,0-2.3,0.4-3,1.1c-0.7,0.8-1.1,1.8-1.1,2.9c0,1.2,0.4,2.2,1.1,3
		c0.7,0.8,1.7,1.2,3,1.2c1.3,0,2.3-0.4,3-1.2c0.7-0.8,1.1-1.8,1.1-3C504,118.6,503.6,117.6,502.9,116.8z M502.2,122.1
		c-0.6,0.6-1.3,1-2.3,1s-1.8-0.3-2.3-1c-0.6-0.6-0.9-1.4-0.9-2.3c0-0.9,0.3-1.7,0.8-2.3c0.6-0.6,1.3-0.9,2.3-0.9s1.8,0.3,2.3,0.9
		c0.6,0.6,0.8,1.4,0.8,2.3C503.1,120.7,502.8,121.5,502.2,122.1z"/>
	<path class="st18" d="M500.4,121.1v0.7h1.3v-0.7h-0.2l-0.6-0.9l0.1-0.1c0.4-0.2,0.6-0.6,0.6-1.1c0-0.4-0.2-0.7-0.5-1
		c-0.3-0.3-0.9-0.4-1.6-0.4h-1.1v0.7h0.5v2.8h-0.5v0.7h1.5v-0.7h-0.3v-0.9l0.2,0c0,0,0.1,0,0.3,0h0.1l0.6,0.8H500.4z M500.6,119.5
		c-0.1,0.1-0.3,0.2-0.4,0.2c-0.1,0-0.3,0-0.5,0l-0.1,0v-1.2l0.1,0c0.7,0.1,1.1,0.3,1.1,0.7C500.8,119.2,500.7,119.3,500.6,119.5z"/>
</g>
</svg>
